<svg width="100%" height="100%" viewBox="0 0 26 26" fill="none" xmlns="http://www.w3.org/2000/svg">
<circle cx="13" cy="13" r="13" fill="#E5E5E5"/>
<path d="M19.5665 7.24804C19.4334 7.10029 19.247 7.01144 19.0485 7.00103C18.8499 6.99062 18.6553 7.05951 18.5075 7.19254L11.5362 13.4663L8.28947 10.2195C8.22028 10.1479 8.13752 10.0908 8.04602 10.0515C7.95452 10.0122 7.8561 9.99147 7.75652 9.99061C7.65693 9.98974 7.55817 10.0087 7.466 10.0464C7.37383 10.0841 7.29009 10.1398 7.21967 10.2102C7.14925 10.2807 7.09356 10.3644 7.05585 10.4566C7.01814 10.5488 6.99916 10.6475 7.00003 10.7471C7.00089 10.8467 7.02158 10.9451 7.06089 11.0366C7.1002 11.1281 7.15733 11.2109 7.22897 11.28L10.979 15.03C11.1148 15.1658 11.2976 15.2443 11.4896 15.2494C11.6816 15.2544 11.8682 15.1855 12.011 15.057L19.511 8.30704C19.6587 8.17395 19.7476 7.98763 19.758 7.78904C19.7684 7.59045 19.6995 7.39585 19.5665 7.24804V7.24804Z" fill="#111E52"/>
<path d="M18.5066 11.6926L11.5354 17.9664L8.28861 14.7196C8.14716 14.583 7.95771 14.5074 7.76106 14.5091C7.56441 14.5108 7.3763 14.5897 7.23725 14.7287C7.09819 14.8678 7.01932 15.0559 7.01761 15.2526C7.0159 15.4492 7.09149 15.6387 7.22811 15.7801L10.9781 19.5301C11.114 19.6659 11.2967 19.7444 11.4887 19.7494C11.6807 19.7544 11.8674 19.6856 12.0101 19.5571L19.5101 12.8071C19.6534 12.6729 19.7383 12.4878 19.7467 12.2916C19.755 12.0955 19.6861 11.9038 19.5547 11.7579C19.4233 11.612 19.24 11.5234 19.044 11.5112C18.848 11.499 18.6551 11.5641 18.5066 11.6926V11.6926Z" fill="#111E52"/>
</svg>
