<svg width="100%" height="100%" viewBox="0 0 26 22" fill="none" xmlns="http://www.w3.org/2000/svg">
<path d="M24.2901 17.9383C24.2901 18.4998 24.0671 19.0383 23.67 19.4354C23.2729 19.8325 22.7344 20.0556 22.1728 20.0556H3.11728C2.55575 20.0556 2.01721 19.8325 1.62014 19.4354C1.22307 19.0383 1 18.4998 1 17.9383V6.29321C1 5.73167 1.22307 5.19313 1.62014 4.79606C2.01721 4.399 2.55575 4.17593 3.11728 4.17593H7.35185L9.46914 1H15.821L17.9383 4.17593H22.1728C22.7344 4.17593 23.2729 4.399 23.67 4.79606C24.0671 5.19313 24.2901 5.73167 24.2901 6.29321V17.9383Z" stroke="#293463" stroke-width="2" stroke-linecap="round" stroke-linejoin="round"/>
<path d="M12.6452 15.821C14.9839 15.821 16.8798 13.9251 16.8798 11.5864C16.8798 9.24772 14.9839 7.35184 12.6452 7.35184C10.3065 7.35184 8.41064 9.24772 8.41064 11.5864C8.41064 13.9251 10.3065 15.821 12.6452 15.821Z" stroke="#293463" stroke-width="2" stroke-linecap="round" stroke-linejoin="round"/>
</svg>
