<svg width="100%" height="100%" viewBox="0 0 17 21" fill="none" xmlns="http://www.w3.org/2000/svg">
<path d="M9.38299 6.6479V1.66211H2.41211V19.0201H15.3382V7.61736H10.3524C10.0953 7.61736 9.84875 7.51523 9.66694 7.33342C9.48513 7.15161 9.38299 6.90502 9.38299 6.6479Z" fill="#FF855C"/>
<path d="M16.783 5.1843L11.8157 0.216974C11.6772 0.0784801 11.4902 0 11.294 0H1.48864C1.08008 0 0.75 0.330078 0.75 0.738636V19.9432C0.75 20.3517 1.08008 20.6818 1.48864 20.6818H16.2614C16.6699 20.6818 17 20.3517 17 19.9432V5.70827C17 5.51207 16.9215 5.3228 16.783 5.1843ZM10.9524 1.70348L15.2965 6.04759H10.9524V1.70348ZM15.3381 19.0199H2.41193V1.66193H9.38281V6.64773C9.38281 6.90484 9.48495 7.15143 9.66676 7.33324C9.84857 7.51505 10.0952 7.61719 10.3523 7.61719H15.3381V19.0199Z" fill="#FF855C"/>
</svg>
