<svg width="100%" height="100%" viewBox="0 0 16 15" fill="none" xmlns="http://www.w3.org/2000/svg">
<path d="M1 1V1.73613C1.00132 1.82281 1.03909 1.9055 1.1051 1.96617L6.20621 6.8036C6.27222 6.86427 6.31 6.94696 6.31131 7.03364V12.744C6.31118 12.8056 6.3295 12.866 6.36419 12.9182C6.39888 12.9705 6.44854 13.0126 6.50751 13.0397L9.27527 13.9665C9.32874 13.9911 9.388 14.0024 9.44746 13.9996C9.50693 13.9967 9.56463 13.9796 9.61512 13.95C9.66561 13.9204 9.70722 13.8793 9.73603 13.8304C9.76484 13.7815 9.7799 13.7266 9.77978 13.6707V6.97449C9.78947 6.88565 9.83451 6.80351 9.90591 6.74445L14.8949 1.97932C14.9609 1.91864 14.9987 1.83596 15 1.74928V1H1Z" stroke="#464255" stroke-opacity="0.9" stroke-width="1.43"/>
</svg>
