<svg width="100%" height="100%" viewBox="0 0 14 14" fill="none" xmlns="http://www.w3.org/2000/svg">
<path d="M1 1.5V2.12288C1.00113 2.19623 1.03351 2.26619 1.09009 2.31753L5.46246 6.41074C5.51904 6.46208 5.55142 6.53204 5.55255 6.60539V11.4372C5.55244 11.4893 5.56815 11.5404 5.59788 11.5847C5.62761 11.6289 5.67018 11.6645 5.72072 11.6875L8.09309 12.4716C8.13892 12.4924 8.18972 12.5021 8.24068 12.4996C8.29165 12.4972 8.34111 12.4828 8.38438 12.4577C8.42766 12.4327 8.46333 12.3978 8.48803 12.3565C8.51272 12.3151 8.52563 12.2686 8.52553 12.2214V6.55534C8.53383 6.48017 8.57244 6.41067 8.63363 6.36069L12.9099 2.32865C12.9665 2.27731 12.9989 2.20735 13 2.134V1.5H1Z" stroke="#FF6C27" stroke-width="1.5"/>
</svg>
