<svg width="100%" height="100%" viewBox="0 0 14 18" fill="none" xmlns="http://www.w3.org/2000/svg">
<path d="M0.750006 6.71286L0.750007 6.71265C0.751872 5.13183 1.38068 3.61629 2.49849 2.49848C3.61609 1.38088 5.13127 0.752099 6.71177 0.750001C8.29227 0.752099 9.80746 1.38088 10.9251 2.49848C12.0429 3.61629 12.6717 5.13183 12.6735 6.71265V6.71284C12.6754 8.00219 12.2542 9.25655 11.4747 10.2835L11.3997 10.3822L11.3996 10.3825L11.3815 10.4062L11.3123 10.4958C11.2991 10.5129 11.2909 10.5234 11.2867 10.5288C11.2851 10.5309 11.284 10.5322 11.2835 10.5328L6.71176 15.9248L2.13711 10.5296L2.13713 10.5296L2.13381 10.5257C2.13491 10.527 2.13027 10.521 2.12076 10.5087C2.10576 10.4894 2.07862 10.4544 2.04271 10.4075L1.97778 10.3225L1.95702 10.2952L1.95131 10.2877L1.94985 10.2858L1.94949 10.2853C1.94946 10.2853 1.94942 10.2852 1.94939 10.2852C1.16945 9.25775 0.748116 8.00281 0.750006 6.71286Z" stroke="#FF6C27" stroke-width="1.5"/>
<path d="M8.60178 5.44913L9.22538 5.03245L8.60178 5.44913C8.85141 5.82272 8.98469 6.26192 8.9848 6.71123C8.98394 7.31385 8.74417 7.89155 8.31804 8.31768C7.89192 8.7438 7.31422 8.98357 6.71159 8.98443C6.26229 8.98432 5.82309 8.85104 5.4495 8.60142C5.07576 8.35169 4.78446 7.99675 4.61245 7.58147C4.44044 7.1662 4.39543 6.70924 4.48312 6.26838C4.57081 5.82753 4.78727 5.42258 5.1051 5.10474C5.42294 4.7869 5.82789 4.57045 6.26875 4.48276C6.7096 4.39507 7.16656 4.44007 7.58184 4.61209C7.99711 4.7841 8.35206 5.07539 8.60178 5.44913Z" stroke="#FF6C27" stroke-width="1.5"/>
</svg>
