<svg width="100%" height="100%" viewBox="0 0 16 16" fill="none" xmlns="http://www.w3.org/2000/svg">
<path d="M8.00022 2.66669C8.49114 2.66669 8.88911 2.26872 8.88911 1.7778C8.88911 1.28689 8.49114 0.888916 8.00022 0.888916C7.5093 0.888916 7.11133 1.28689 7.11133 1.7778C7.11133 2.26872 7.5093 2.66669 8.00022 2.66669Z" fill="#111E52"/>
<path d="M2.66667 13.3333H6.66667C6.66667 13.6869 6.80715 14.0261 7.05719 14.2762C7.30724 14.5262 7.64638 14.6667 8 14.6667C8.35362 14.6667 8.69276 14.5262 8.94284 14.2762C9.19289 14.0261 9.33333 13.6869 9.33333 13.3333H13.3333C13.5101 13.3333 13.6797 13.2631 13.8047 13.138C13.9298 13.0131 14 12.8435 14 12.6667C14 12.4899 13.9298 12.3203 13.8047 12.1953C13.6797 12.0702 13.5101 12 13.3333 12V7.33333C13.3333 5.91884 12.7715 4.56229 11.7712 3.5621C10.771 2.5619 9.41449 2 8 2C6.58551 2 5.22896 2.5619 4.22876 3.5621C3.22857 4.56229 2.66667 5.91884 2.66667 7.33333V12C2.48986 12 2.32028 12.0702 2.19526 12.1953C2.07024 12.3203 2 12.4899 2 12.6667C2 12.8435 2.07024 13.0131 2.19526 13.138C2.32028 13.2631 2.48986 13.3333 2.66667 13.3333ZM4 7.33333C4 6.27247 4.42143 5.25505 5.17157 4.50491C5.92172 3.75476 6.93914 3.33333 8 3.33333C9.06089 3.33333 10.0783 3.75476 10.8284 4.50491C11.5786 5.25505 12 6.27247 12 7.33333V12H4V7.33333Z" fill="#111E52"/>
</svg>
