<svg width="100%" height="100%" viewBox="0 0 25 21" fill="none" xmlns="http://www.w3.org/2000/svg">
<path d="M22.2778 3.28225H18.5L17.6 0.78774C17.5378 0.617048 17.4239 0.469503 17.2737 0.365261C17.1236 0.261018 16.9446 0.205162 16.7611 0.205323H8.23889C7.86389 0.205323 7.52778 0.438839 7.40278 0.78774L6.5 3.28225H2.72222C1.49444 3.28225 0.5 4.26576 0.5 5.48005V18.0075C0.5 19.2218 1.49444 20.2053 2.72222 20.2053H22.2778C23.5056 20.2053 24.5 19.2218 24.5 18.0075V5.48005C24.5 4.26576 23.5056 3.28225 22.2778 3.28225ZM22.5 18.0075C22.5 18.1284 22.4 18.2273 22.2778 18.2273H2.72222C2.6 18.2273 2.5 18.1284 2.5 18.0075V5.48005C2.5 5.35917 2.6 5.26027 2.72222 5.26027H7.90833L8.38333 3.94708L9.01944 2.18334H15.9778L16.6139 3.94708L17.0889 5.26027H22.2778C22.4 5.26027 22.5 5.35917 22.5 5.48005V18.0075ZM12.5 7.01851C10.0444 7.01851 8.05556 8.98554 8.05556 11.4141C8.05556 13.8427 10.0444 15.8097 12.5 15.8097C14.9556 15.8097 16.9444 13.8427 16.9444 11.4141C16.9444 8.98554 14.9556 7.01851 12.5 7.01851ZM12.5 14.0515C11.0278 14.0515 9.83333 12.8702 9.83333 11.4141C9.83333 9.95807 11.0278 8.77675 12.5 8.77675C13.9722 8.77675 15.1667 9.95807 15.1667 11.4141C15.1667 12.8702 13.9722 14.0515 12.5 14.0515Z" fill="#FF6C27"/>
</svg>
