<svg width="100%" height="100%" viewBox="0 0 23 23" fill="none" xmlns="http://www.w3.org/2000/svg">
<circle cx="11.0626" cy="11.0626" r="11.0626" fill="#FF0000"/>
<path fill-rule="evenodd" clip-rule="evenodd" d="M14.2528 15.3111C14.5457 15.604 15.0206 15.604 15.3135 15.3111C15.6064 15.0182 15.6064 14.5433 15.3135 14.2504L12.1256 11.0625L15.3131 7.875C15.606 7.5821 15.606 7.10723 15.3131 6.81434C15.0202 6.52144 14.5453 6.52144 14.2524 6.81434L11.0649 10.0018L7.8774 6.81434C7.58451 6.52144 7.10963 6.52144 6.81674 6.81434C6.52385 7.10723 6.52385 7.5821 6.81674 7.875L10.0043 11.0625L6.81635 14.2504C6.52346 14.5433 6.52346 15.0182 6.81635 15.3111C7.10924 15.604 7.58412 15.604 7.87701 15.3111L11.0649 12.1232L14.2528 15.3111Z" fill="white"/>
</svg>
