<svg width="100%" height="100%" viewBox="0 0 19 19" fill="none" xmlns="http://www.w3.org/2000/svg">
<path d="M17.5 17.5C16.1332 16.1308 12.3236 12.3174 12.3236 12.3174M14.2632 7.63158C14.2632 9.39038 13.5645 11.0772 12.3208 12.3208C11.0772 13.5645 9.39038 14.2632 7.63158 14.2632C5.87277 14.2632 4.18601 13.5645 2.94234 12.3208C1.69868 11.0772 1 9.39038 1 7.63158C1 5.87277 1.69868 4.18601 2.94234 2.94234C4.18601 1.69868 5.87277 1 7.63158 1C9.39038 1 11.0772 1.69868 12.3208 2.94234C13.5645 4.18601 14.2632 5.87277 14.2632 7.63158Z" stroke="black" stroke-width="2" stroke-linecap="round"/>
</svg>
