<svg width="428" height="348" viewBox="0 0 428 348" fill="none" xmlns="http://www.w3.org/2000/svg">
<g clip-path="url(#clip0_3004_23212)">
<path d="M117.723 287.05C124.489 287.05 129.973 285.64 129.973 283.902C129.973 282.163 124.489 280.754 117.723 280.754C110.957 280.754 105.472 282.163 105.472 283.902C105.472 285.64 110.957 287.05 117.723 287.05Z" fill="white"/>
<path d="M117.723 286.553C123.867 286.553 128.848 285.358 128.848 283.884C128.848 282.41 123.867 281.215 117.723 281.215C111.578 281.215 106.597 282.41 106.597 283.884C106.597 285.358 111.578 286.553 117.723 286.553Z" fill="#DBDBDB"/>
<path d="M109.967 283.232C110.412 283.232 110.773 283.108 110.773 282.954C110.773 282.8 110.412 282.676 109.967 282.676C109.522 282.676 109.161 282.8 109.161 282.954C109.161 283.108 109.522 283.232 109.967 283.232Z" fill="#9E9E9E"/>
<path d="M111.812 282.56C112.257 282.56 112.618 282.436 112.618 282.282C112.618 282.128 112.257 282.004 111.812 282.004C111.366 282.004 111.006 282.128 111.006 282.282C111.006 282.436 111.366 282.56 111.812 282.56Z" fill="#9E9E9E"/>
<path d="M108.975 284.182C109.42 284.182 109.781 284.057 109.781 283.903C109.781 283.75 109.42 283.625 108.975 283.625C108.529 283.625 108.168 283.75 108.168 283.903C108.168 284.057 108.529 284.182 108.975 284.182Z" fill="#9E9E9E"/>
<path d="M109.967 285.131C110.412 285.131 110.773 285.006 110.773 284.853C110.773 284.699 110.412 284.574 109.967 284.574C109.522 284.574 109.161 284.699 109.161 284.853C109.161 285.006 109.522 285.131 109.967 285.131Z" fill="#9E9E9E"/>
<path d="M111.939 285.631C112.384 285.631 112.745 285.506 112.745 285.353C112.745 285.199 112.384 285.074 111.939 285.074C111.494 285.074 111.133 285.199 111.133 285.353C111.133 285.506 111.494 285.631 111.939 285.631Z" fill="#9E9E9E"/>
<path d="M114.189 285.846C114.634 285.846 114.995 285.721 114.995 285.567C114.995 285.414 114.634 285.289 114.189 285.289C113.744 285.289 113.383 285.414 113.383 285.567C113.383 285.721 113.744 285.846 114.189 285.846Z" fill="#9E9E9E"/>
<path d="M116.694 285.978C117.139 285.978 117.5 285.854 117.5 285.7C117.5 285.546 117.139 285.422 116.694 285.422C116.248 285.422 115.887 285.546 115.887 285.7C115.887 285.854 116.248 285.978 116.694 285.978Z" fill="#9E9E9E"/>
<path d="M111.42 284.451C111.865 284.451 112.226 284.327 112.226 284.173C112.226 284.019 111.865 283.895 111.42 283.895C110.975 283.895 110.614 284.019 110.614 284.173C110.614 284.327 110.975 284.451 111.42 284.451Z" fill="#9E9E9E"/>
<path d="M112.449 283.51C112.894 283.51 113.255 283.385 113.255 283.231C113.255 283.078 112.894 282.953 112.449 282.953C112.004 282.953 111.643 283.078 111.643 283.231C111.643 283.385 112.004 283.51 112.449 283.51Z" fill="#9E9E9E"/>
<path d="M113.984 284.568C114.429 284.568 114.79 284.444 114.79 284.29C114.79 284.136 114.429 284.012 113.984 284.012C113.539 284.012 113.178 284.136 113.178 284.29C113.178 284.444 113.539 284.568 113.984 284.568Z" fill="#9E9E9E"/>
<path d="M116.525 284.65C116.97 284.65 117.331 284.526 117.331 284.372C117.331 284.218 116.97 284.094 116.525 284.094C116.08 284.094 115.719 284.218 115.719 284.372C115.719 284.526 116.08 284.65 116.525 284.65Z" fill="#9E9E9E"/>
<path d="M114.061 282.283C114.507 282.283 114.867 282.159 114.867 282.005C114.867 281.851 114.507 281.727 114.061 281.727C113.616 281.727 113.255 281.851 113.255 282.005C113.255 282.159 113.616 282.283 114.061 282.283Z" fill="#9E9E9E"/>
<path d="M115.182 283.51C115.627 283.51 115.988 283.385 115.988 283.231C115.988 283.078 115.627 282.953 115.182 282.953C114.736 282.953 114.375 283.078 114.375 283.231C114.375 283.385 114.736 283.51 115.182 283.51Z" fill="#9E9E9E"/>
<path d="M117.773 283.342C118.218 283.342 118.579 283.217 118.579 283.063C118.579 282.91 118.218 282.785 117.773 282.785C117.328 282.785 116.967 282.91 116.967 283.063C116.967 283.217 117.328 283.342 117.773 283.342Z" fill="#9E9E9E"/>
<path d="M116.439 282.092C116.884 282.092 117.245 281.967 117.245 281.813C117.245 281.66 116.884 281.535 116.439 281.535C115.993 281.535 115.633 281.66 115.633 281.813C115.633 281.967 115.993 282.092 116.439 282.092Z" fill="#9E9E9E"/>
<path d="M125.633 283.232C126.078 283.232 126.439 283.108 126.439 282.954C126.439 282.8 126.078 282.676 125.633 282.676C125.188 282.676 124.827 282.8 124.827 282.954C124.827 283.108 125.188 283.232 125.633 283.232Z" fill="#9E9E9E"/>
<path d="M123.789 282.56C124.234 282.56 124.595 282.436 124.595 282.282C124.595 282.128 124.234 282.004 123.789 282.004C123.344 282.004 122.983 282.128 122.983 282.282C122.983 282.436 123.344 282.56 123.789 282.56Z" fill="#9E9E9E"/>
<path d="M126.626 284.182C127.071 284.182 127.432 284.057 127.432 283.903C127.432 283.75 127.071 283.625 126.626 283.625C126.181 283.625 125.82 283.75 125.82 283.903C125.82 284.057 126.181 284.182 126.626 284.182Z" fill="#9E9E9E"/>
<path d="M125.633 285.131C126.078 285.131 126.439 285.006 126.439 284.853C126.439 284.699 126.078 284.574 125.633 284.574C125.188 284.574 124.827 284.699 124.827 284.853C124.827 285.006 125.188 285.131 125.633 285.131Z" fill="#9E9E9E"/>
<path d="M123.661 285.631C124.106 285.631 124.467 285.506 124.467 285.353C124.467 285.199 124.106 285.074 123.661 285.074C123.216 285.074 122.855 285.199 122.855 285.353C122.855 285.506 123.216 285.631 123.661 285.631Z" fill="#9E9E9E"/>
<path d="M121.412 285.846C121.857 285.846 122.218 285.721 122.218 285.567C122.218 285.414 121.857 285.289 121.412 285.289C120.966 285.289 120.605 285.414 120.605 285.567C120.605 285.721 120.966 285.846 121.412 285.846Z" fill="#9E9E9E"/>
<path d="M118.907 285.978C119.352 285.978 119.713 285.854 119.713 285.7C119.713 285.546 119.352 285.422 118.907 285.422C118.462 285.422 118.101 285.546 118.101 285.7C118.101 285.854 118.462 285.978 118.907 285.978Z" fill="#9E9E9E"/>
<path d="M124.18 284.451C124.626 284.451 124.986 284.327 124.986 284.173C124.986 284.019 124.626 283.895 124.18 283.895C123.735 283.895 123.374 284.019 123.374 284.173C123.374 284.327 123.735 284.451 124.18 284.451Z" fill="#9E9E9E"/>
<path d="M123.147 283.51C123.592 283.51 123.953 283.385 123.953 283.231C123.953 283.078 123.592 282.953 123.147 282.953C122.701 282.953 122.341 283.078 122.341 283.231C122.341 283.385 122.701 283.51 123.147 283.51Z" fill="#9E9E9E"/>
<path d="M121.721 284.568C122.166 284.568 122.527 284.444 122.527 284.29C122.527 284.136 122.166 284.012 121.721 284.012C121.276 284.012 120.915 284.136 120.915 284.29C120.915 284.444 121.276 284.568 121.721 284.568Z" fill="#9E9E9E"/>
<path d="M119.162 284.65C119.607 284.65 119.968 284.526 119.968 284.372C119.968 284.218 119.607 284.094 119.162 284.094C118.717 284.094 118.356 284.218 118.356 284.372C118.356 284.526 118.717 284.65 119.162 284.65Z" fill="#9E9E9E"/>
<path d="M121.539 282.283C121.984 282.283 122.345 282.159 122.345 282.005C122.345 281.851 121.984 281.727 121.539 281.727C121.094 281.727 120.733 281.851 120.733 282.005C120.733 282.159 121.094 282.283 121.539 282.283Z" fill="#9E9E9E"/>
<path d="M120.287 283.51C120.732 283.51 121.093 283.385 121.093 283.231C121.093 283.078 120.732 282.953 120.287 282.953C119.842 282.953 119.481 283.078 119.481 283.231C119.481 283.385 119.842 283.51 120.287 283.51Z" fill="#9E9E9E"/>
<path d="M119.162 282.092C119.607 282.092 119.968 281.967 119.968 281.813C119.968 281.66 119.607 281.535 119.162 281.535C118.717 281.535 118.356 281.66 118.356 281.813C118.356 281.967 118.717 282.092 119.162 282.092Z" fill="#9E9E9E"/>
<path d="M120.815 280.293H116.748C116.625 280.293 116.525 280.393 116.525 280.517V281.173C116.525 281.297 116.625 281.397 116.748 281.397H120.815C120.938 281.397 121.038 281.297 121.038 281.173V280.517C121.038 280.393 120.938 280.293 120.815 280.293Z" fill="#9B9B9B"/>
<g style="mix-blend-mode:multiply" opacity="0.28">
<path d="M100.263 281.291L100.586 278.645C100.718 277.771 100.791 276.89 100.805 276.008C100.771 275.16 100.679 274.315 100.531 273.48C100.417 272.597 100.377 271.706 100.413 270.816C100.435 269.956 100.364 269.097 100.203 268.252C100.023 267.385 99.9014 266.507 99.8391 265.624C99.7207 263.799 99.6524 262.006 99.6114 260.2C99.5659 258.156 99.5659 256.112 99.6114 254.068C99.6114 254.007 99.5875 253.949 99.5447 253.907C99.502 253.864 99.4441 253.84 99.3837 253.84C99.3234 253.84 99.2654 253.864 99.2227 253.907C99.18 253.949 99.156 254.007 99.156 254.068C99.0984 257.699 99.1667 261.331 99.361 264.962C99.3934 265.82 99.4785 266.675 99.616 267.522C99.8103 268.386 99.9321 269.265 99.9803 270.15C99.9803 271.035 99.9166 271.911 100.008 272.796C100.099 273.681 100.272 274.497 100.34 275.351C100.39 276.342 100.34 277.335 100.19 278.316C100.071 279.308 99.95 280.299 99.8255 281.291C99.7936 281.578 100.249 281.578 100.281 281.291H100.263Z" fill="black"/>
</g>
<path d="M99.8071 281.291L100.13 278.645C100.262 277.771 100.335 276.89 100.349 276.008C100.315 275.16 100.224 274.315 100.076 273.48C99.9612 272.597 99.9216 271.706 99.9574 270.816C99.979 269.956 99.9088 269.097 99.7479 268.252C99.5676 267.385 99.4459 266.507 99.3836 265.624C99.2652 263.799 99.1969 262.006 99.1559 260.2C99.1103 258.156 99.1103 256.112 99.1559 254.068C99.1559 254.007 99.1319 253.949 99.0892 253.907C99.0465 253.864 98.9886 253.84 98.9282 253.84C98.8678 253.84 98.8099 253.864 98.7672 253.907C98.7245 253.949 98.7005 254.007 98.7005 254.068C98.6428 257.699 98.7111 261.331 98.9054 264.962C98.9378 265.82 99.023 266.675 99.1604 267.522C99.3547 268.386 99.4766 269.265 99.5248 270.15C99.5248 271.035 99.461 271.911 99.5521 272.796C99.6432 273.681 99.8162 274.497 99.8845 275.351C99.9349 276.342 99.8845 277.335 99.7342 278.316C99.6158 279.308 99.4944 280.299 99.3699 281.291C99.338 281.578 99.7934 281.578 99.8253 281.291H99.8071Z" fill="#FFFEFA"/>
<g style="mix-blend-mode:multiply" opacity="0.28">
<path d="M100.6 242.93H98.0902C96.9987 242.93 96.1138 243.816 96.1138 244.91V252.944C96.1138 254.037 96.9987 254.924 98.0902 254.924H100.6C101.691 254.924 102.576 254.037 102.576 252.944V244.91C102.576 243.816 101.691 242.93 100.6 242.93Z" fill="black"/>
</g>
<path d="M100.144 242.473H97.6349C96.5433 242.473 95.6584 243.359 95.6584 244.453V252.487C95.6584 253.58 96.5433 254.467 97.6349 254.467H100.144C101.236 254.467 102.121 253.58 102.121 252.487V244.453C102.121 243.359 101.236 242.473 100.144 242.473Z" fill="#FFFEFA"/>
<g style="mix-blend-mode:multiply" opacity="0.28">
<path d="M90.8856 295.224C89.902 295.051 89.5194 294.312 90.0386 293.554L97.7805 282.441C98.1082 282.047 98.5319 281.744 99.0105 281.562C99.4892 281.38 100.007 281.324 100.513 281.401C101.497 281.569 101.879 282.313 101.355 283.066L93.6135 294.179C93.2858 294.572 92.863 294.875 92.3854 295.058C91.9079 295.241 91.3915 295.298 90.8856 295.224Z" fill="black"/>
</g>
<path d="M90.4303 294.767C89.4466 294.594 89.0641 293.855 89.5832 293.097L97.3251 281.984C97.6529 281.59 98.0766 281.287 98.5552 281.105C99.0339 280.923 99.5513 280.867 100.058 280.944C101.041 281.112 101.424 281.856 100.9 282.609L93.1582 293.722C92.8305 294.115 92.4077 294.418 91.9301 294.601C91.4526 294.784 90.9362 294.841 90.4303 294.767Z" fill="#FFFEFA"/>
<path d="M93.3541 290.568C92.8167 290.477 92.6072 290.071 92.8986 289.656L97.1248 283.661C97.3067 283.448 97.5396 283.285 97.8017 283.187C98.0637 283.089 98.3464 283.059 98.6231 283.1C99.1605 283.196 99.37 283.602 99.0785 284.012L94.8478 290.007C94.6679 290.221 94.436 290.386 94.1743 290.484C93.9127 290.582 93.6302 290.611 93.3541 290.568Z" fill="#A3A3A3"/>
<path d="M93.5088 290.503C92.9897 290.412 92.7939 290.015 93.0534 289.618L97.1293 283.733C97.3009 283.525 97.5231 283.365 97.7744 283.268C98.0256 283.172 98.2975 283.142 98.5638 283.181C99.0784 283.272 99.2788 283.669 99.0192 284.061L94.9479 289.946C94.7764 290.156 94.5537 290.317 94.3015 290.415C94.0493 290.512 93.7763 290.543 93.5088 290.503Z" fill="#E5E5E5"/>
<path d="M99.247 282.204C99.4005 282.204 99.5248 282.112 99.5248 281.998C99.5248 281.885 99.4005 281.793 99.247 281.793C99.0936 281.793 98.9692 281.885 98.9692 281.998C98.9692 282.112 99.0936 282.204 99.247 282.204Z" fill="#C6C6C6"/>
<path d="M91.4004 293.313C91.5538 293.313 91.6782 293.221 91.6782 293.108C91.6782 292.994 91.5538 292.902 91.4004 292.902C91.2469 292.902 91.1226 292.994 91.1226 293.108C91.1226 293.221 91.2469 293.313 91.4004 293.313Z" fill="#C6C6C6"/>
<path d="M98.8876 247.58L98.0825 248.387L98.8876 249.193L99.6926 248.387L98.8876 247.58Z" fill="#B5B5B5"/>
<path d="M98.9477 247.637L98.207 248.379L98.9477 249.121L99.6883 248.379L98.9477 247.637Z" fill="#E5E5E5"/>
<path opacity="0.45" d="M95.6584 246.852H96.1594V249.279H95.6584" stroke="#686868" stroke-width="0.25" stroke-miterlimit="10"/>
<path d="M81.896 227.887V259.909H97.8078" stroke="#5B5B5B" stroke-width="0.75" stroke-miterlimit="10" stroke-linecap="round" stroke-dasharray="5 5"/>
<path d="M98.951 262.045C100.131 262.045 101.087 261.087 101.087 259.905C101.087 258.724 100.131 257.766 98.951 257.766C97.7714 257.766 96.8152 258.724 96.8152 259.905C96.8152 261.087 97.7714 262.045 98.951 262.045Z" fill="#D5682C"/>
<path d="M6.1622 0H-124.084V271.232H6.1622V0Z" fill="url(#paint0_linear_3004_23212)"/>
<path opacity="0.5" d="M6.1622 -0.03125V18.5917L3.02447 21.7396L-124.084 149.08V106.533L-17.7511 0.000685398H3.02447C3.02447 -0.03125 6.1622 -0.03125 6.1622 -0.03125Z" fill="white"/>
<path opacity="0.5" d="M6.1622 42.2461V124.466L-124.084 254.899V172.73L6.1622 42.2461Z" fill="white"/>
<path d="M136.408 0H6.16211V271.232H136.408V0Z" fill="url(#paint1_linear_3004_23212)"/>
<path opacity="0.5" d="M136.413 -0.03125V18.5917L133.27 21.7396L6.16211 149.08V106.533L112.499 0.000685398H133.27C133.27 -0.03125 136.413 -0.03125 136.413 -0.03125Z" fill="white"/>
<path opacity="0.5" d="M136.413 42.2461V124.466L6.16675 254.899V172.73L136.413 42.2461Z" fill="white"/>
<path d="M266.663 0H136.417V271.232H266.663V0Z" fill="url(#paint2_linear_3004_23212)"/>
<path opacity="0.5" d="M266.663 -0.03125V18.5917L263.516 21.7441L136.417 149.08V106.533L242.75 0.000685398H263.516C263.516 -0.03125 266.663 -0.03125 266.663 -0.03125Z" fill="white"/>
<path opacity="0.5" d="M266.663 42.2461V124.466L136.417 254.899V172.73L266.663 42.2461Z" fill="white"/>
<path d="M396.909 0H266.663V271.232H396.909V0Z" fill="url(#paint3_linear_3004_23212)"/>
<path opacity="0.5" d="M396.914 0V18.591L266.663 149.079V106.532L373 0H396.914Z" fill="white"/>
<path opacity="0.5" d="M396.914 42.2461V124.466L266.663 254.899V172.73L396.914 42.2461Z" fill="white"/>
<path d="M6.16671 -0.03125H3.02441V271.233H6.16671V-0.03125Z" fill="#96A1BA"/>
<path d="M136.417 -0.03125H133.27V271.233H136.417V-0.03125Z" fill="#96A1BA"/>
<path d="M266.663 -0.03125H263.516V271.233H266.663V-0.03125Z" fill="#96A1BA"/>
<path opacity="0.06" d="M311.753 183.46V88.7715L289.934 89.2003V103.79L266.381 118.804V167.456H248.807V94.1549L240.177 85.5141V41.5664H202.542V65.8373L177.554 89.2003V169.372L167.326 179.614V218.032H151.35V119.457H137.428V103.361H111.297V119.457H101.346V240.259L85.8489 226.527V81.9054L72.7424 87.5214V70.3174H46.1831V98.9087L40.8002 101.217V176.42H27.6982V132.984L16.5135 108.904V50.1479L-17.0954 49.678V78.4837L-25.402 86.8097V135.447H-39.4604L-60.8098 148.249V267.966H324.531V183.46H311.753Z" fill="#3B455B"/>
<path opacity="0.06" d="M757.759 183.46V88.7715L735.94 89.2003V103.79L712.387 118.804V167.456H694.813V94.1549L686.187 85.5141V41.5664H648.552V65.8373L623.56 89.2003V169.372L613.336 179.614V218.032H597.36V119.457H583.439V103.361H557.307V119.457H547.357V240.259L531.859 226.527V81.9054L518.753 87.5214V70.3174H492.194V98.9087L486.806 101.217V176.42H473.709V132.984L462.524 108.904V50.1479L428.915 49.678V78.4837L420.608 86.8097V135.447H406.55L385.201 148.249V267.966H770.542V183.46H757.759Z" fill="#3B455B"/>
<path d="M395.138 268.008H-126.11V271.233H395.138V268.008Z" fill="#96A1BA"/>
<path d="M684.894 -0.03125H-124.184V12.0768H684.894V-0.03125Z" fill="#B8C4DA"/>
<path d="M684.894 15.9766H-124.184V23.1985H684.894V15.9766Z" fill="#B8C4DA"/>
<path d="M684.894 25.8086H-124.184V33.0306H684.894V25.8086Z" fill="#B8C4DA"/>
<path d="M684.894 35.6367H-124.184V42.8587H684.894V35.6367Z" fill="#B8C4DA"/>
<path d="M684.894 45.4688H-124.184V52.6907H684.894V45.4688Z" fill="#B8C4DA"/>
<path d="M684.894 55.3008H-124.184V62.5227H684.894V55.3008Z" fill="#B8C4DA"/>
<path d="M684.894 65.1289H-124.184V72.3509H684.894V65.1289Z" fill="#B8C4DA"/>
<path d="M369.266 239.134C369.439 241.698 369.084 242.898 368.405 243.181C366.178 244.116 360.536 235.357 359.065 233.03C355.561 227.464 352.291 221.757 349.255 215.908C345.103 207.917 341.418 199.691 338.216 191.272C332.724 176.837 327.697 162.038 328.616 146.449C329.286 134.988 333.275 124.55 342.734 117.451C346.878 114.344 351.123 113.514 354.948 115.384C356.641 116.252 358.129 117.473 359.311 118.966C375.277 138.341 369.421 165.108 367.586 188.024C366.224 205.182 368.064 222.044 369.266 239.134Z" fill="#55787B"/>
<g style="mix-blend-mode:multiply" opacity="0.5">
<path d="M369.266 239.131C369.439 241.695 369.084 242.895 368.405 243.178C366.178 244.113 360.536 235.354 359.065 233.027C355.561 227.461 352.291 221.754 349.255 215.905C350.622 214.787 352.389 213.368 352.639 213.04C354.356 210.8 355.827 207.807 357.193 205.312C363.378 194.102 362.854 177.268 362.863 164.827C362.872 154.979 362.111 145.147 360.586 135.419C359.871 130.907 359.311 125.993 357.749 121.7C356.952 119.519 355.845 117.476 354.943 115.363C356.636 116.231 358.124 117.452 359.306 118.945C375.273 138.32 369.416 165.087 367.581 188.003C366.224 205.179 368.064 222.041 369.266 239.131Z" fill="#4A4D5C"/>
</g>
<g opacity="0.5">
<g style="mix-blend-mode:multiply">
<path d="M363.828 229.326C345.219 193.094 338.812 151.802 345.567 111.621L346.09 111.712C339.354 151.782 345.745 192.959 364.307 229.089L363.828 229.326Z" fill="#5A7E82"/>
<path d="M366.001 225.141C355.932 199.802 350.972 175.007 351.268 151.443C351.446 137.3 353.545 123.103 355.549 109.375L356.077 109.453C354.06 123.167 351.979 137.346 351.806 151.425C351.51 174.92 356.455 199.647 366.493 224.917L366.001 225.141Z" fill="#5A7E82"/>
<path d="M362.235 237.463C350.394 212.946 331.267 162.219 327.883 131.219C327.387 126.656 327.132 123.185 327.059 119.918H327.592C327.665 123.171 327.92 126.643 328.412 131.173C331.458 159.189 348.591 208.046 362.713 237.244L362.235 237.463Z" fill="#5A7E82"/>
</g>
</g>
<path d="M414.939 190.823C406.24 207.799 392.255 222.398 380.546 237.316C379.083 239.178 377.565 241.01 375.992 242.814C374.394 244.616 372.741 246.4 370.915 248.11C370.896 248.13 370.874 248.145 370.849 248.155C370.824 248.166 370.798 248.171 370.771 248.171C370.744 248.171 370.718 248.166 370.693 248.155C370.669 248.145 370.646 248.13 370.628 248.11C370.598 248.076 370.571 248.039 370.546 248.001C369.685 246.724 370.655 241.682 370.71 240.332C370.764 238.857 370.831 237.386 370.91 235.92C370.908 235.893 370.908 235.865 370.91 235.838C370.992 234.173 371.092 232.508 371.197 230.847C371.409 227.535 371.664 224.227 371.962 220.924C372.123 219.157 372.291 217.392 372.468 215.628C373.287 207.416 374.289 199.226 375.341 191.056C376.657 180.772 379.818 170.357 386.039 161.944C389.081 157.767 392.937 154.252 397.374 151.611C400.707 149.658 404.701 147.482 408.581 146.994C410.794 146.716 412.612 147.76 414.092 149.499C417.498 153.5 419.101 161.164 419.684 164.777C421.064 173.715 419.028 182.835 414.939 190.823Z" fill="#55787B"/>
<g opacity="0.5">
<g style="mix-blend-mode:multiply">
<path d="M369.785 247.297L369.33 247.068C372.785 239.87 375.678 232.415 377.983 224.768C379.804 218.632 381.312 212.282 382.746 206.141C384.249 199.717 385.802 193.07 387.756 186.656C393.001 169.502 401.336 153.454 412.347 139.305L412.766 139.633C401.795 153.731 393.49 169.72 388.261 186.811C386.298 193.198 384.745 199.845 383.252 206.264C381.813 212.414 380.328 218.769 378.479 224.923C376.164 232.595 373.257 240.076 369.785 247.297Z" fill="#5A7E82"/>
<path d="M369.539 248.455L369.111 248.136C375.072 240.075 381.234 231.735 385.119 222.291C387.109 217.46 388.48 212.387 389.805 207.482L389.905 207.126C393.065 195.429 396.335 183.335 401.563 172.207C407.552 159.474 415.326 149.811 424.671 143.488L424.971 143.945C415.704 150.213 407.994 159.803 402.046 172.449C396.836 183.531 393.571 195.602 390.415 207.277L390.319 207.633C388.99 212.555 387.614 217.647 385.615 222.51C381.703 232 375.519 240.367 369.539 248.455Z" fill="#5A7E82"/>
<path d="M371.62 245.785L371.283 245.37C373.105 243.878 374.635 241.984 376.097 240.15L376.685 239.42C378.638 236.993 380.551 234.475 382.404 232.039C383.03 231.211 383.655 230.389 384.281 229.571C388.73 223.728 392.735 217.56 396.262 211.117C398.685 206.705 400.967 202.047 403.043 197.27C404.642 193.589 406.117 189.761 407.543 186.056C411.186 176.599 414.957 166.822 421.164 158.469L421.592 158.788C415.426 167.082 411.673 176.827 408.039 186.248C406.609 189.957 405.134 193.789 403.531 197.485C401.45 202.275 399.159 206.947 396.727 211.377C393.186 217.841 389.167 224.031 384.704 229.895C384.076 230.716 383.45 231.538 382.828 232.363C380.974 234.799 379.057 237.326 377.099 239.753L376.516 240.483C375.036 242.34 373.501 244.256 371.62 245.785Z" fill="#5A7E82"/>
<path d="M369.494 244.751L368.97 244.651C369.881 240.034 371.379 235.526 372.845 231.142C374.212 227.113 375.578 222.93 376.489 218.71C378.005 211.634 378.388 204.435 378.766 197.473C378.984 193.317 379.221 189.019 379.677 184.767C381.116 171.628 384.85 160.587 390.77 151.979C391.371 151.098 392.013 150.231 392.633 149.392C394.614 146.696 396.49 144.145 397.547 140.988L398.052 141.162C396.968 144.396 394.983 147.093 393.043 149.707C392.423 150.542 391.79 151.408 391.189 152.28C385.319 160.825 381.626 171.774 380.187 184.826C379.731 189.06 379.494 193.353 379.276 197.5C378.907 204.485 378.52 211.707 376.999 218.819C376.088 223.085 374.681 227.269 373.328 231.315C371.889 235.668 370.382 240.17 369.494 244.751Z" fill="#5A7E82"/>
</g>
</g>
<path d="M366.656 241.596C367.411 238.964 368.482 236.433 369.844 234.059C371.144 231.713 372.646 229.486 374.335 227.403C377.71 223.21 381.703 219.557 386.175 216.567C388.456 215.031 390.863 213.691 393.37 212.562C395.946 211.424 398.647 210.599 401.418 210.103C405.972 209.291 411.309 209.4 415.699 210.979C419.411 212.315 423.09 216.535 420.321 220.463C418.19 223.488 414.128 224.647 410.89 225.993C406.7 227.733 402.483 229.414 398.239 231.039C387.988 234.962 377.541 238.936 366.98 241.919C366.947 241.929 366.912 241.932 366.877 241.928C366.843 241.924 366.81 241.913 366.78 241.896C366.75 241.879 366.723 241.856 366.702 241.829C366.681 241.802 366.665 241.77 366.656 241.737C366.643 241.691 366.643 241.642 366.656 241.596Z" fill="#6E9EA6"/>
<g opacity="0.5">
<g style="mix-blend-mode:multiply">
<path d="M367.777 241.342L367.494 240.886C385.556 229.503 406.75 220.242 434.202 211.738L434.362 212.245C406.955 220.74 385.797 229.983 367.777 241.342Z" fill="#5A7E82"/>
<path d="M367.754 242.433L367.39 242.045C368.501 241.005 369.608 239.961 370.737 238.939C387.377 223.819 407.474 212.98 425.003 204.006L425.099 203.956C426.89 203.092 428.62 202.105 430.277 201.004L430.582 201.437C428.906 202.555 427.157 203.557 425.345 204.435L425.244 204.485C407.748 213.44 387.687 224.257 371.097 239.331C369.967 240.353 368.861 241.393 367.754 242.433Z" fill="#5A7E82"/>
<path d="M367.34 242.184L366.93 241.851C379.644 226.284 395.287 213.372 412.971 203.848L413.222 204.304C395.599 213.799 380.01 226.669 367.34 242.184Z" fill="#5A7E82"/>
</g>
</g>
<path d="M355.221 226.344C352.098 225.635 349.071 224.549 346.209 223.109C343.387 221.73 340.689 220.111 338.144 218.268C333.029 214.564 328.506 210.103 324.727 205.038C322.788 202.459 321.071 199.719 319.595 196.849C318.099 193.901 316.961 190.784 316.207 187.565C314.968 182.277 314.754 176.009 316.325 170.758C317.65 166.319 322.35 161.734 327.118 164.736C330.789 167.044 332.401 171.734 334.177 175.448C336.478 180.256 338.711 185.095 340.876 189.965C346.113 201.74 351.419 213.743 355.577 225.942C355.603 226.02 355.597 226.104 355.561 226.178C355.526 226.251 355.462 226.307 355.385 226.334C355.332 226.351 355.276 226.354 355.221 226.344Z" fill="#6E9EA6"/>
<g opacity="0.5">
<g style="mix-blend-mode:multiply">
<path d="M354.37 225.373C339.924 204.912 327.76 180.636 316.079 148.979L316.58 148.797C328.243 180.408 340.389 204.643 354.807 225.068L354.37 225.373Z" fill="#5A7E82"/>
<path d="M355.727 225.423L355.668 225.369C354.397 224.15 353.131 222.932 351.883 221.696C333.161 203.132 319.222 180.253 307.622 160.266L307.554 160.143C306.427 158.1 305.165 156.135 303.774 154.262L304.193 153.934C305.598 155.822 306.875 157.804 308.014 159.864L308.082 159.988C319.663 179.947 333.585 202.79 352.257 221.308C353.504 222.545 354.77 223.758 356.036 224.958L356.096 225.017L355.727 225.423Z" fill="#5A7E82"/>
<path d="M355.522 225.972C336.526 212.05 320.446 194.525 308.196 174.392L308.651 174.113C320.862 194.187 336.891 211.661 355.827 225.543L355.522 225.972Z" fill="#5A7E82"/>
</g>
</g>
<path d="M396.404 179.37C396.057 190.684 391.476 201.04 386.585 211.104C381.633 221.272 375.684 230.922 368.824 239.91C367.613 241.493 362.972 247.456 361.428 246.639C360.973 246.379 360.773 245.499 361.069 243.66C361.524 240.854 361.979 238.067 362.435 235.275C362.799 233.067 363.163 230.863 363.5 228.66C364.612 221.451 365.477 214.229 365.55 206.857C365.696 190.2 363.2 170.491 375.969 157.544C378.825 154.652 381.99 154.104 385.078 155.5C386.166 156.019 387.171 156.701 388.056 157.521C388.533 157.95 388.988 158.393 389.422 158.849C394.764 164.433 396.618 171.678 396.404 179.37Z" fill="#6E9EA6"/>
<g style="mix-blend-mode:multiply" opacity="0.7">
<path d="M396.404 179.368C396.057 190.683 391.476 201.039 386.585 211.103C381.633 221.271 375.684 230.921 368.824 239.909C367.613 241.492 362.972 247.455 361.428 246.638C360.973 246.378 360.773 245.498 361.069 243.659C361.524 240.853 361.979 238.066 362.435 235.274C362.799 233.066 363.163 230.862 363.5 228.658C373.465 221.655 378.684 209.853 382.423 198.589C386.678 185.756 389.029 172.366 389.399 158.848C394.764 164.432 396.618 171.677 396.404 179.368Z" fill="#4D585B"/>
</g>
<g opacity="0.5">
<g style="mix-blend-mode:multiply">
<path d="M360.813 246.813L360.549 246.357C363.446 244.696 365.053 241.549 366.611 238.501C366.952 237.84 367.289 237.178 367.64 236.535C373.729 225.316 380.651 211.958 385.792 197.952C390.747 184.439 395.866 168.886 393.826 155.328L394.354 155.25C396.412 168.937 391.271 184.558 386.289 198.135C381.138 212.177 374.207 225.554 368.104 236.79C367.758 237.429 367.426 238.086 367.084 238.743C365.495 241.859 363.828 245.084 360.813 246.813Z" fill="#5A7E82"/>
<path d="M360.367 248.512L359.912 248.206C365.787 239.898 369.202 230.281 372.021 221.125C374.877 211.982 377.178 202.675 378.911 193.254C381.454 178.755 382.533 164.036 382.131 149.32H382.664C383.067 164.073 381.985 178.829 379.435 193.364C377.703 202.796 375.402 212.113 372.545 221.266C369.717 230.482 366.283 240.145 360.367 248.512Z" fill="#5A7E82"/>
<path d="M361.014 247.088L360.518 246.892C371.092 219.519 374.767 187.041 371.151 152.911L371.68 152.852C375.305 187.073 371.62 219.651 361.014 247.088Z" fill="#5A7E82"/>
</g>
</g>
<path d="M368.428 244.99C367.309 241.551 365.78 238.259 363.874 235.186C362.041 232.153 359.951 229.283 357.626 226.609C352.959 221.234 347.503 216.6 341.445 212.868C338.36 210.95 335.118 209.297 331.754 207.927C328.303 206.541 324.7 205.572 321.02 205.039C314.977 204.186 307.927 204.583 302.207 206.864C297.371 208.808 292.708 214.556 296.556 219.611C299.511 223.503 304.931 224.839 309.271 226.454C314.89 228.553 320.539 230.572 326.216 232.513C339.942 237.207 353.923 241.957 368.013 245.392C368.058 245.403 368.104 245.405 368.149 245.398C368.194 245.391 368.237 245.375 368.276 245.351C368.315 245.328 368.349 245.296 368.376 245.26C368.402 245.223 368.422 245.181 368.432 245.136C368.441 245.088 368.439 245.038 368.428 244.99Z" fill="#55787B"/>
<g opacity="0.5">
<g style="mix-blend-mode:multiply">
<path d="M369.334 246.225C349.856 236.108 329.522 227.739 308.57 221.215C304.079 219.819 298.847 218.268 293.5 217.529L293.569 217C298.956 217.744 304.22 219.304 308.724 220.705C329.708 227.236 350.073 235.618 369.58 245.751L369.334 246.225Z" fill="#5A7E82"/>
<path d="M371.115 250.136C348.152 228.796 320.134 213.678 289.711 206.212L289.834 205.691C320.352 213.175 348.459 228.334 371.497 249.735L371.115 250.136Z" fill="#5A7E82"/>
<path d="M377.946 255.592C359.025 230.642 333.427 211.581 304.125 200.622L304.307 200.125C333.718 211.111 359.412 230.235 378.401 255.273L377.946 255.592Z" fill="#5A7E82"/>
</g>
</g>
<path opacity="0.1" d="M345.744 142.159C347.147 146.037 350.913 146.954 355.194 143.76C360.276 139.974 365.855 127.957 356.697 125.425C354.242 124.749 351.578 124.991 349.565 126.666C346.336 129.353 345.161 134.362 345.157 138.377C345.134 139.662 345.333 140.941 345.744 142.159Z" fill="white"/>
<path opacity="0.1" d="M327.045 182.101C325.31 181.645 323.402 181.796 322 182.982C318.479 185.915 318.11 190.865 322.195 193.32C329.946 197.969 334.013 184.031 327.045 182.101Z" fill="white"/>
<path opacity="0.1" d="M352.443 149.609C351.464 150.422 350.767 151.676 350.936 152.94C351.118 154.309 352.302 155.394 353.559 155.969C355.982 157.064 359.743 157.069 360.75 154.058C361.469 151.918 360.244 149.769 358.377 148.711C356.26 147.52 354.219 148.118 352.443 149.609Z" fill="white"/>
<path opacity="0.1" d="M369.903 176.389C364.398 181.134 376.083 187.284 378.233 180.865C378.952 178.725 377.727 176.576 375.86 175.518C374.093 174.514 371.502 175.011 369.903 176.389Z" fill="white"/>
<path opacity="0.1" d="M379.371 173.326C379.123 173.514 378.926 173.761 378.797 174.045C378.668 174.328 378.612 174.639 378.634 174.95C378.708 175.284 378.864 175.595 379.088 175.853C379.313 176.111 379.598 176.309 379.918 176.428C381.102 176.962 382.937 176.967 383.429 175.516C383.569 175.014 383.53 174.478 383.318 174.002C383.106 173.525 382.734 173.138 382.268 172.906C381.243 172.304 380.25 172.596 379.371 173.326Z" fill="white"/>
<path opacity="0.1" d="M343.454 154.45C343.206 154.639 343.008 154.887 342.88 155.171C342.751 155.455 342.695 155.767 342.716 156.079C342.791 156.412 342.947 156.721 343.17 156.979C343.393 157.237 343.677 157.435 343.996 157.557C345.18 158.09 347.015 158.095 347.511 156.644C347.651 156.141 347.611 155.605 347.399 155.128C347.187 154.651 346.816 154.263 346.35 154.03C345.325 153.432 344.333 153.747 343.454 154.45Z" fill="white"/>
<path opacity="0.1" d="M348.677 159.738C347.584 160.974 348.454 163.269 350.526 163.26C353.819 163.26 352.962 158.396 349.925 159.053C349.447 159.142 349.009 159.382 348.677 159.738Z" fill="white"/>
<path opacity="0.1" d="M319.244 175.135C319.349 183.242 331.731 174.519 323.407 171.097C320.783 170.02 319.199 172.689 319.244 175.135Z" fill="white"/>
<path opacity="0.1" d="M327.105 178.276C327.155 182.332 333.348 177.966 329.186 176.26C327.874 175.721 327.086 177.053 327.105 178.276Z" fill="white"/>
<path opacity="0.1" d="M372.959 168.801C373.064 176.908 385.446 168.18 377.117 164.763C374.494 163.682 372.936 166.346 372.959 168.801Z" fill="white"/>
<path d="M383.352 239.156L381.589 252.898L379.262 270.763L378.957 273.126C378.662 275.386 377.557 277.461 375.847 278.964C374.138 280.467 371.941 281.297 369.667 281.297H355.026C352.751 281.298 350.553 280.469 348.844 278.965C347.134 277.462 346.029 275.386 345.735 273.126L345.426 270.763L343.098 252.898L341.313 239.156H383.352Z" fill="#3B455B"/>
<g style="mix-blend-mode:multiply">
<path d="M342.165 245.87L381.872 250.537L382.541 245.418L342.165 245.87Z" fill="#3B455B"/>
</g>
<path d="M339.382 238.906H385.569C385.619 238.906 385.668 238.916 385.714 238.935C385.76 238.954 385.802 238.982 385.837 239.017C385.872 239.052 385.9 239.094 385.919 239.14C385.938 239.186 385.947 239.235 385.947 239.285V243.336C385.947 244.037 385.67 244.709 385.175 245.204C384.681 245.699 384.01 245.978 383.311 245.978H341.641C340.942 245.978 340.271 245.699 339.776 245.204C339.282 244.709 339.004 244.037 339.004 243.336V239.285C339.004 239.235 339.014 239.186 339.033 239.14C339.052 239.094 339.08 239.052 339.115 239.017C339.15 238.982 339.192 238.954 339.237 238.935C339.283 238.916 339.333 238.906 339.382 238.906Z" fill="#3B455B"/>
<path opacity="0.5" d="M381.567 252.898L379.239 270.764H345.403L343.076 252.898H381.567Z" fill="white"/>
<path d="M225.03 240.719H234.206L250.214 289.571H248.984L225.03 240.719Z" fill="#3B455B"/>
<path d="M194.9 240.719H185.719L169.716 289.571H170.946L194.9 240.719Z" fill="#3B455B"/>
<path d="M218.923 289.574H220.467L223.413 244.148H215.977L218.923 289.574Z" fill="#3B455B"/>
<path d="M260.388 186.139C259.477 191.157 258.375 196.175 257.359 201.121C255.777 208.797 254.194 216.476 252.609 224.155C251.814 228.033 251.015 231.907 250.214 235.775H194.9L195.597 233.084L198.48 221.966L204.546 198.584C205.785 193.791 207.029 188.994 208.28 184.195C209.833 178.2 211.163 170.705 216.423 166.722C219.654 164.282 223.589 162.959 227.635 162.953H236.998C240.641 162.953 244.949 162.575 248.98 162.953C252.596 163.296 256.325 164.432 258.794 166.932C259.904 168.051 260.719 169.429 261.166 170.942C262.628 175.833 261.271 181.243 260.388 186.139Z" fill="#749E47"/>
<path d="M250.214 235.766C249.041 238.078 247.44 240.147 245.496 241.861C245.218 242.107 244.936 242.34 244.649 242.568C241.026 245.441 236.541 247.004 231.92 247.002H173.883C172.309 247.003 170.762 246.594 169.393 245.817C168.023 245.04 166.878 243.92 166.069 242.568C165.928 242.34 165.8 242.112 165.682 241.861C165.077 240.613 164.766 239.242 164.771 237.855V237.723C164.771 237.465 164.822 237.21 164.92 236.972C165.019 236.734 165.164 236.518 165.346 236.336C165.529 236.154 165.745 236.01 165.983 235.912C166.221 235.814 166.476 235.764 166.734 235.766H250.214Z" fill="#749E47"/>
<path opacity="0.29" d="M244.649 242.566C241.026 245.44 236.541 247.002 231.92 247.001H173.883C172.309 247.001 170.762 246.593 169.392 245.816C168.023 245.039 166.878 243.919 166.069 242.566H244.649Z" fill="#232323"/>
<path opacity="0.29" d="M260.388 186.137C259.477 191.156 258.375 196.174 257.359 201.119C255.777 208.796 254.194 216.474 252.609 224.154C251.814 228.032 251.015 231.905 250.214 235.774H194.9L195.597 233.082C208.412 232.17 221.164 228.465 232.112 221.677C238.196 217.895 243.319 212.502 247.327 206.234C251.596 199.482 254.581 191.997 256.13 184.157C257.282 178.331 257.291 172.469 258.794 166.953C259.904 168.072 260.719 169.45 261.166 170.963C262.628 175.831 261.271 181.242 260.388 186.137Z" fill="#232323"/>
<path d="M23.4811 239.828H14.0815L-2.30396 289.844H-1.04249L23.4811 239.828Z" fill="#3B455B"/>
<path d="M54.3257 239.828H63.7252L80.1107 289.844H78.8493L54.3257 239.828Z" fill="#3B455B"/>
<path d="M29.7339 289.842H28.1536L25.1343 243.34H32.7487L29.7339 289.842Z" fill="#3B455B"/>
<path d="M54.3258 234.759C53.9933 234.129 46.3471 234.759 45.4089 234.759H-2.31754L-30.9398 180.847C-32.0763 178.707 -32.6405 176.308 -32.5775 173.885C-32.5146 171.461 -31.8266 169.095 -30.5805 167.017C-29.3345 164.939 -27.5727 163.219 -25.4666 162.025C-23.3605 160.831 -20.9818 160.203 -18.5618 160.203H3.29761C6.74961 160.202 10.1368 161.142 13.0958 162.923C16.0547 164.704 18.4736 167.259 20.093 170.313L54.3258 234.759Z" fill="#749E47"/>
<path d="M85.1842 236.779V236.916C85.1881 238.339 84.864 239.744 84.237 241.022C83.4721 242.6 82.2793 243.931 80.7951 244.862C79.3108 245.793 77.595 246.286 75.8438 246.287H16.4225C12.5407 246.287 8.73477 245.209 5.42687 243.174C2.11898 241.139 -0.561557 238.226 -2.31738 234.758H83.1622C83.4282 234.755 83.6921 234.805 83.9385 234.905C84.1849 235.006 84.4088 235.155 84.5971 235.343C84.7855 235.531 84.9344 235.755 85.0352 236.002C85.136 236.248 85.1867 236.513 85.1842 236.779Z" fill="#749E47"/>
<path opacity="0.29" d="M84.2368 241.013H84.2687C82.5336 244.846 77.8384 246.379 73.6395 246.456C67.3914 246.57 61.1022 246.264 54.8358 246.264H16.4224C12.5429 246.267 8.73863 245.193 5.43097 243.162C2.1233 241.131 -0.558582 238.223 -2.31754 234.759L-30.9398 180.847C-32.0763 178.707 -32.6405 176.308 -32.5775 173.885C-32.5146 171.461 -31.8266 169.095 -30.5805 167.017C-29.3345 164.939 -27.5727 163.219 -25.4666 162.025C-23.3605 160.831 -20.9818 160.203 -18.5618 160.203H-3.14638C-0.974096 176.974 6.57198 192.403 12.6106 207.983C17.4152 220.383 24.4011 236.725 38.6143 240.484C45.664 242.364 53.4651 241.123 60.6741 241.032C68.5299 240.927 76.3856 240.968 84.2368 241.013Z" fill="#232323"/>
<g opacity="0.5">
<g style="mix-blend-mode:multiply">
<path d="M-69.9908 288.224L-70.2732 287.768C-49.238 274.537 -24.5505 263.729 7.41897 253.82L7.57836 254.331C-24.3456 264.227 -48.9967 274.998 -69.9908 288.224Z" fill="#5A7E82"/>
<path d="M-70.0273 289.512L-70.3916 289.12L-70.3233 289.06C-69.0527 287.87 -67.7821 286.674 -66.4888 285.502C-47.1067 267.896 -23.7034 255.273 -3.29217 244.821L-3.1601 244.752C-1.07733 243.755 0.934265 242.615 2.86036 241.34L3.16549 241.796C1.22071 243.093 -0.810623 244.254 -2.91418 245.272L-3.04625 245.336C-23.4302 255.77 -46.797 268.375 -66.1336 285.94C-67.4224 287.108 -68.6929 288.299 -69.959 289.489L-70.0273 289.512Z" fill="#5A7E82"/>
</g>
</g>
<path d="M268.202 188.27L267.779 193.343L267.201 200.291L266.832 204.671H256.877L256.508 200.291L255.929 193.343L255.501 188.27H268.202Z" fill="#3B455B"/>
<path d="M267.779 193.344L267.2 200.292H256.508L255.929 193.344H267.779Z" fill="white"/>
<path d="M255.528 186.137H268.093C268.162 186.137 268.228 186.164 268.277 186.213C268.325 186.262 268.353 186.328 268.353 186.397V187.565H255.269V186.397C255.269 186.328 255.296 186.262 255.345 186.213C255.394 186.164 255.46 186.137 255.528 186.137Z" fill="white"/>
<path d="M268.854 187.778V188.051C268.854 188.08 268.848 188.109 268.837 188.135C268.826 188.162 268.81 188.186 268.79 188.206C268.769 188.227 268.745 188.243 268.719 188.254C268.692 188.265 268.664 188.27 268.635 188.27H254.987C254.957 188.271 254.929 188.266 254.902 188.255C254.874 188.244 254.85 188.228 254.829 188.208C254.808 188.187 254.792 188.163 254.78 188.136C254.769 188.109 254.763 188.081 254.763 188.051V187.778C254.763 187.748 254.769 187.72 254.78 187.693C254.792 187.666 254.808 187.642 254.829 187.621C254.85 187.601 254.874 187.585 254.902 187.574C254.929 187.563 254.957 187.558 254.987 187.559H268.649C268.704 187.562 268.756 187.587 268.795 187.627C268.833 187.668 268.854 187.722 268.854 187.778Z" fill="white"/>
<path d="M256.986 183.113H266.713C266.932 183.113 267.141 183.2 267.296 183.355C267.451 183.51 267.537 183.72 267.537 183.939V186.138H256.152V183.944C256.152 183.834 256.173 183.725 256.215 183.624C256.256 183.523 256.318 183.431 256.395 183.354C256.473 183.276 256.565 183.215 256.666 183.174C256.768 183.133 256.876 183.112 256.986 183.113Z" fill="white"/>
<g style="mix-blend-mode:multiply">
<path d="M255.506 188.27L255.583 189.168L268.011 190.532L268.202 188.27H255.506Z" fill="#3B455B"/>
</g>
<path d="M62.769 309.532L59.7451 308.323L98.8007 210.09L133.626 308.382L130.556 309.473L98.6231 219.347L62.769 309.532Z" fill="#968E5F"/>
<path d="M120.287 274.398H75.3474V277.66H120.287V274.398Z" fill="#968E5F"/>
<path d="M272.734 309.301L269.705 308.097L308.761 209.863L343.59 308.151L340.521 309.246L308.583 219.12L272.734 309.301Z" fill="#968E5F"/>
<path d="M330.479 274.398H285.54V277.66H330.479V274.398Z" fill="#968E5F"/>
<path d="M367.704 214.539H35.3765V221.506H367.704V214.539Z" fill="#968E5F"/>
<path opacity="0.2" d="M367.704 212.062H35.3765V216.921H367.704V212.062Z" fill="#3B455B"/>
<path d="M378.502 204.672H24.5833C24.0627 204.672 23.6406 205.095 23.6406 205.616V213.55C23.6406 214.071 24.0627 214.494 24.5833 214.494H378.502C379.022 214.494 379.444 214.071 379.444 213.55V205.616C379.444 205.095 379.022 204.672 378.502 204.672Z" fill="#3B455B"/>
<path d="M289.206 274.047H298.473L314.635 323.369H313.392L289.206 274.047Z" fill="#3B455B"/>
<path d="M258.789 274.047H249.522L233.364 323.369H234.602L258.789 274.047Z" fill="#3B455B"/>
<path d="M283.044 323.368H284.602L287.575 277.504H280.066L283.044 323.368Z" fill="#3B455B"/>
<path d="M342.88 215.883L314.645 269.041H267.583C266.672 269.041 259.226 268.435 258.798 269.041C259.331 268.033 292.548 205.504 292.548 205.504C294.147 202.493 296.532 199.975 299.45 198.219C302.368 196.463 305.708 195.535 309.112 195.535H330.666C333.052 195.535 335.397 196.153 337.474 197.329C339.551 198.505 341.288 200.2 342.518 202.248C343.747 204.296 344.427 206.628 344.49 209.018C344.554 211.407 343.999 213.772 342.88 215.883Z" fill="#749E47"/>
<path d="M314.645 269.043C312.911 272.457 310.269 275.325 307.01 277.328C303.751 279.331 300.002 280.392 296.178 280.394H237.572C235.905 280.395 234.269 279.941 232.839 279.082C231.41 278.223 230.241 276.991 229.457 275.517C229.397 275.416 229.343 275.307 229.288 275.202C228.671 273.943 228.351 272.558 228.355 271.155V271.028C228.356 270.501 228.565 269.996 228.938 269.624C229.31 269.252 229.814 269.043 230.34 269.043H314.645Z" fill="#749E47"/>
<path opacity="0.29" d="M342.88 215.884L314.645 269.043C312.911 272.457 310.269 275.324 307.01 277.328C303.751 279.331 300.002 280.392 296.178 280.393H237.572C235.905 280.394 234.269 279.941 232.839 279.082C231.41 278.223 230.24 276.99 229.457 275.516C232.052 274.284 236.743 275.179 239.393 275.17C255.214 275.142 273.28 277.505 287.161 269.043C289.488 267.631 291.639 265.946 293.568 264.024C302.627 254.973 308.447 242.938 313.725 231.555C319.358 219.415 325.142 207.147 332.046 195.609C334.302 195.837 336.468 196.617 338.353 197.881C340.237 199.144 341.783 200.853 342.853 202.856C343.923 204.859 344.486 207.095 344.49 209.366C344.495 211.638 343.942 213.876 342.88 215.884Z" fill="#232323"/>
<path d="M25.8083 0H25.0432V37.6655H25.8083V0Z" fill="#3B455B"/>
<path d="M19.0865 40.1484H31.7467C33.0451 40.1484 34.2903 40.6651 35.2084 41.5849C36.1265 42.5046 36.6423 43.7521 36.6423 45.0528V84.452H14.2V45.0391C14.2036 43.7423 14.7197 42.4998 15.6354 41.5833C16.5512 40.6667 17.792 40.1508 19.0865 40.1484Z" fill="#3B455B"/>
<path d="M30.6584 37.6719H20.5803V40.2632H30.6584V37.6719Z" fill="#3B455B"/>
<path d="M127.491 0H126.726V37.6655H127.491V0Z" fill="#3B455B"/>
<path d="M120.778 40.1484H133.439C134.737 40.1484 135.982 40.6651 136.9 41.5849C137.819 42.5046 138.334 43.7521 138.334 45.0528V84.452H115.883V45.0391C115.886 43.7408 116.404 42.4968 117.322 41.58C118.239 40.6633 119.482 40.1484 120.778 40.1484Z" fill="#3B455B"/>
<path d="M132.341 37.6719H122.263V40.2632H132.341V37.6719Z" fill="#3B455B"/>
<path d="M229.174 0H228.409V37.6655H229.174V0Z" fill="#3B455B"/>
<path d="M222.466 40.1484H235.126C236.425 40.1484 237.67 40.6651 238.588 41.5849C239.506 42.5046 240.022 43.7521 240.022 45.0528V84.452H217.57V45.0391C217.574 43.7408 218.091 42.4968 219.009 41.58C219.927 40.6633 221.17 40.1484 222.466 40.1484Z" fill="#3B455B"/>
<path d="M234.024 37.6719H223.946V40.2632H234.024V37.6719Z" fill="#3B455B"/>
<path d="M330.862 0H330.097V37.6655H330.862V0Z" fill="#3B455B"/>
<path d="M324.149 40.1484H336.809C338.108 40.1484 339.353 40.6651 340.271 41.5849C341.189 42.5046 341.705 43.7521 341.705 45.0528V84.452H319.253V45.0391C319.257 43.7408 319.774 42.4968 320.692 41.58C321.61 40.6633 322.853 40.1484 324.149 40.1484Z" fill="#3B455B"/>
<path d="M335.707 37.6719H325.629V40.2632H335.707V37.6719Z" fill="#3B455B"/>
<path opacity="0.1" d="M21.614 50.3281C20.5519 50.3281 19.5333 50.7505 18.7818 51.5024C18.0304 52.2543 17.6077 53.2743 17.6064 54.3383V84.4488H25.617V54.3383C25.6158 53.2751 25.1937 52.2558 24.4432 51.504C23.6928 50.7522 22.6753 50.3293 21.614 50.3281Z" fill="white"/>
<path opacity="0.1" d="M123.297 50.3282C122.77 50.3258 122.247 50.4277 121.759 50.6282C121.272 50.8286 120.828 51.1236 120.455 51.4962C120.081 51.8689 119.784 52.3118 119.582 52.7995C119.38 53.2872 119.276 53.8102 119.276 54.3383V84.4489H127.282V54.3383C127.28 53.2783 126.861 52.2617 126.114 51.5105C125.368 50.7592 124.355 50.3342 123.297 50.3282Z" fill="white"/>
<path opacity="0.1" d="M224.98 50.3281C223.919 50.3293 222.901 50.7522 222.151 51.504C221.4 52.2558 220.978 53.2751 220.977 54.3383V84.4488H228.983V54.3383C228.983 53.2747 228.561 52.2547 227.81 51.5027C227.06 50.7506 226.041 50.3281 224.98 50.3281Z" fill="white"/>
<path opacity="0.1" d="M326.663 50.3281C325.601 50.3293 324.584 50.7522 323.833 51.504C323.083 52.2558 322.661 53.2751 322.66 54.3383V84.4488H330.67V54.3383C330.669 53.2743 330.246 52.2543 329.495 51.5024C328.743 50.7505 327.725 50.3281 326.663 50.3281Z" fill="white"/>
<path d="M57.1766 323.179H166.888V273.766L173.291 215.479C173.291 208.75 167.371 204.466 161.127 201.938C150.881 197.782 127.427 188.402 127.427 188.402C127.427 188.402 125.018 203.179 111.652 203.179C99.4792 203.179 96.2276 188.402 96.2276 188.402C96.2276 188.402 71.285 196.879 62.5276 201.938C56.703 205.296 49.7034 209.822 49.7034 212.983L57.468 273.246L57.1766 323.179Z" fill="#212053"/>
<path d="M127.305 188.509C127.305 188.509 125.556 203.514 111.447 203.514C98.4319 203.514 96.1047 188.509 96.1047 188.509V173.203H127.305V188.509Z" fill="#CE8479"/>
<path d="M144.942 155.572C144.942 167.398 129.199 183.571 111.698 183.571C94.8751 183.571 78.4987 169.578 78.4987 155.572L77.1689 129.613C77.1683 125.071 78.0609 120.574 79.7957 116.377C81.5305 112.181 84.0735 108.368 87.2795 105.156C90.4855 101.944 94.2917 99.3967 98.4806 97.6588C102.67 95.9209 107.159 95.0267 111.693 95.0273C116.228 95.0261 120.718 95.9199 124.908 97.6574C129.098 99.395 132.905 101.942 136.111 105.154C139.318 108.366 141.862 112.179 143.598 116.376C145.333 120.573 146.227 125.071 146.227 129.613L144.942 155.572Z" fill="#DD9280"/>
<path d="M150.321 145.454C150.175 149.478 147.657 152.653 144.683 152.557C141.709 152.461 139.4 149.108 139.537 145.084C139.673 141.06 142.187 137.894 145.166 137.995C148.144 138.095 150.453 141.43 150.321 145.454Z" fill="#DD9280"/>
<path d="M83.8179 144.765C83.9408 148.789 81.6319 152.128 78.6627 152.224C75.6934 152.32 73.1614 149.136 73.0384 145.112C72.9155 141.088 75.2061 137.762 78.1845 137.666C81.1628 137.57 83.6858 140.746 83.8179 144.765Z" fill="#DD9280"/>
<path d="M176.757 347.946H203.571C201.249 323.552 191.257 246.72 189.736 239.972C183.597 212.759 166.779 205.062 166.779 205.062C166.779 205.062 166.948 231.957 166.779 270.936C166.756 276.529 174.658 331.28 176.757 347.946Z" fill="#212053"/>
<path d="M50.0269 348.485C52.1536 332.029 57.7005 277.228 57.6731 270.686C57.5001 231.707 57.6731 204.812 57.6731 204.812C57.6731 204.812 35.0076 214.051 28.8642 241.264C27.3614 247.925 22.4885 324.338 21.3318 348.476L50.0269 348.485Z" fill="#212053"/>
<path d="M112.649 159.421C112.486 159.421 112.308 159.421 112.144 159.421C112.074 159.414 112.007 159.394 111.945 159.362C111.883 159.329 111.829 159.285 111.784 159.231C111.74 159.177 111.706 159.115 111.686 159.048C111.666 158.981 111.659 158.911 111.666 158.841C111.667 158.769 111.683 158.699 111.714 158.634C111.745 158.569 111.789 158.511 111.844 158.465C111.899 158.419 111.963 158.385 112.032 158.366C112.101 158.346 112.173 158.342 112.244 158.353C113.314 158.458 114.13 158.148 114.216 157.897C114.262 157.797 114.152 157.441 113.269 156.825C110.605 155 110.29 148.681 110.277 148.421C110.273 148.279 110.325 148.141 110.423 148.036C110.52 147.932 110.654 147.871 110.796 147.865C110.865 147.86 110.934 147.869 111 147.892C111.065 147.915 111.125 147.951 111.176 147.998C111.226 148.045 111.267 148.102 111.295 148.165C111.323 148.229 111.337 148.297 111.338 148.366C111.42 150.05 112.012 154.69 113.856 155.944C115.036 156.729 115.482 157.509 115.222 158.253C114.922 159.083 113.779 159.421 112.649 159.421Z" fill="#151F3A"/>
<path d="M94.9343 144.232C94.5503 144.23 94.1705 144.31 93.8201 144.468C93.4698 144.625 93.1572 144.856 92.9032 145.144C92.4777 145.673 92.2506 146.335 92.261 147.014C92.2424 147.572 92.3961 148.122 92.7011 148.589C93.0062 149.056 93.4477 149.417 93.9654 149.624C94.4831 149.83 95.0517 149.871 95.5936 149.741C96.1354 149.611 96.624 149.317 96.9927 148.899C97.4378 148.373 97.6759 147.703 97.6622 147.014C97.6792 146.649 97.6207 146.283 97.4904 145.941C97.36 145.599 97.1605 145.288 96.9044 145.027C96.6483 144.765 96.3412 144.56 96.0022 144.423C95.6632 144.286 95.2996 144.221 94.9343 144.232Z" fill="#151F3A"/>
<path d="M128.384 144.231C128.768 144.229 129.149 144.31 129.5 144.467C129.851 144.624 130.165 144.855 130.419 145.144C130.845 145.673 131.072 146.335 131.062 147.014C131.08 147.572 130.927 148.122 130.621 148.589C130.316 149.056 129.875 149.417 129.357 149.624C128.839 149.83 128.271 149.871 127.729 149.741C127.187 149.611 126.699 149.317 126.33 148.899C125.886 148.373 125.65 147.703 125.665 147.014C125.647 146.649 125.705 146.284 125.835 145.943C125.964 145.601 126.163 145.29 126.418 145.028C126.673 144.767 126.98 144.562 127.318 144.424C127.656 144.287 128.019 144.222 128.384 144.231Z" fill="#151F3A"/>
<path d="M134.759 137.231C134.759 137.231 131.763 133.508 125.082 135.766" stroke="#151F3A" stroke-width="2.22" stroke-linecap="round" stroke-linejoin="round"/>
<path d="M89.2874 137.231C89.2874 137.231 92.2839 133.508 98.9647 135.766" stroke="#151F3A" stroke-width="2.22" stroke-linecap="round" stroke-linejoin="round"/>
<path d="M103.286 167.273C103.437 171.936 107.626 175.691 112.786 175.691C117.946 175.691 122.145 171.936 122.281 167.273H103.286Z" fill="white"/>
<path d="M140.621 106.392C140.621 106.392 147.301 104.48 138.699 99.2429C130.096 94.0055 120.833 95.2555 120.833 95.2555C120.833 95.2555 125.469 85.7068 103.296 93.0793C85.1842 99.1014 75.2381 112.418 77.1736 139.468C77.4144 142.931 77.8324 146.38 78.4259 149.801C78.4259 149.801 80.2157 138.815 87.3655 135.038C94.0509 131.516 93.4224 122.428 92.5344 120.037C95.572 123.523 105.031 117.934 115.305 126.374C121.981 131.849 129.053 131.776 138.407 131.393C137.542 139.386 144.942 149.345 144.942 149.345C151.273 124.239 140.621 106.392 140.621 106.392Z" fill="#151F3A"/>
<path d="M57.6731 204.812L56.9216 351.473L166.929 347.947L166.779 205.077L165.545 204.242C164.211 203.439 162.821 202.731 161.387 202.125L152.712 198.658L149.332 251.881L77.2282 252.647L74.605 196.473L68.1428 199.164C66.4042 199.882 64.7141 200.713 63.0833 201.651L57.6731 204.812Z" fill="#D3692C"/>
<path d="M170.454 172.906V200.526H144.355" stroke="white" stroke-width="2.93" stroke-linecap="round" stroke-linejoin="round"/>
<path d="M55.1138 112.893V85H88.1307" stroke="white" stroke-width="2.93" stroke-linecap="round" stroke-linejoin="round"/>
<path d="M142.884 85H170.454V111.146" stroke="white" stroke-width="2.93" stroke-linecap="round" stroke-linejoin="round"/>
<path d="M82.9618 200.54H55.1138V167.469" stroke="white" stroke-width="2.93" stroke-linecap="round" stroke-linejoin="round"/>
<path d="M160.745 167.844V190.819H139.04" stroke="white" stroke-width="2.44" stroke-linecap="round" stroke-linejoin="round"/>
<path d="M64.823 117.926V94.7227H92.2794" stroke="white" stroke-width="2.44" stroke-linecap="round" stroke-linejoin="round"/>
<path d="M137.815 94.7227H160.745V116.471" stroke="white" stroke-width="2.44" stroke-linecap="round" stroke-linejoin="round"/>
<path d="M87.9804 190.82H64.823V163.328" stroke="white" stroke-width="2.44" stroke-linecap="round" stroke-linejoin="round"/>
<path d="M143.471 127.061C143.474 127.561 143.328 128.051 143.053 128.469C142.777 128.887 142.383 129.213 141.922 129.406C141.461 129.599 140.953 129.651 140.463 129.555C139.973 129.458 139.522 129.218 139.168 128.865C138.814 128.511 138.572 128.061 138.474 127.57C138.377 127.079 138.426 126.57 138.618 126.107C138.809 125.645 139.133 125.249 139.549 124.972C139.964 124.694 140.453 124.546 140.953 124.547C141.619 124.547 142.259 124.811 142.731 125.283C143.203 125.754 143.469 126.393 143.471 127.061Z" fill="white"/>
<path d="M84.4372 128.715C84.4372 129.215 84.2893 129.704 84.0121 130.119C83.7348 130.535 83.3408 130.859 82.8798 131.05C82.4188 131.241 81.9115 131.291 81.4221 131.194C80.9327 131.096 80.4832 130.856 80.1303 130.502C79.7775 130.149 79.5372 129.698 79.4398 129.208C79.3425 128.718 79.3924 128.21 79.5834 127.748C79.7744 127.286 80.0977 126.891 80.5126 126.613C80.9275 126.336 81.4153 126.188 81.9143 126.188C82.5834 126.188 83.2252 126.454 83.6983 126.928C84.1714 127.402 84.4372 128.045 84.4372 128.715Z" fill="white"/>
<path d="M113.251 136.113C113.252 136.613 113.104 137.102 112.828 137.518C112.551 137.934 112.157 138.259 111.696 138.451C111.235 138.643 110.728 138.694 110.238 138.597C109.749 138.5 109.299 138.259 108.945 137.906C108.592 137.553 108.351 137.102 108.254 136.612C108.156 136.122 108.206 135.613 108.396 135.151C108.587 134.689 108.911 134.294 109.326 134.016C109.741 133.738 110.229 133.59 110.728 133.59C111.396 133.59 112.037 133.855 112.51 134.329C112.983 134.802 113.25 135.443 113.251 136.113Z" fill="white"/>
<path d="M80.0015 150.871C80.0015 151.371 79.8535 151.86 79.5763 152.275C79.2991 152.691 78.905 153.015 78.444 153.206C77.983 153.398 77.4757 153.448 76.9863 153.35C76.4969 153.253 76.0474 153.012 75.6945 152.658C75.3417 152.305 75.1014 151.855 75.004 151.364C74.9067 150.874 74.9567 150.366 75.1476 149.904C75.3386 149.442 75.662 149.047 76.0768 148.77C76.4917 148.492 76.9795 148.344 77.4785 148.344C77.8098 148.344 78.1379 148.409 78.444 148.536C78.7501 148.663 79.0282 148.849 79.2625 149.084C79.4968 149.319 79.6826 149.597 79.8094 149.904C79.9362 150.211 80.0015 150.539 80.0015 150.871Z" fill="white"/>
<path d="M114.913 185.008C114.913 185.508 114.765 185.996 114.488 186.412C114.21 186.828 113.816 187.152 113.355 187.343C112.894 187.534 112.387 187.584 111.898 187.487C111.408 187.389 110.959 187.149 110.606 186.795C110.253 186.442 110.013 185.991 109.915 185.501C109.818 185.011 109.868 184.503 110.059 184.041C110.25 183.579 110.573 183.184 110.988 182.906C111.403 182.629 111.891 182.48 112.39 182.48C113.059 182.48 113.701 182.747 114.174 183.221C114.647 183.695 114.913 184.338 114.913 185.008Z" fill="white"/>
<path d="M113.906 159.676C113.906 160.176 113.759 160.664 113.481 161.08C113.204 161.496 112.81 161.82 112.349 162.011C111.888 162.202 111.381 162.252 110.891 162.155C110.402 162.057 109.952 161.817 109.6 161.463C109.247 161.11 109.006 160.659 108.909 160.169C108.812 159.679 108.862 159.171 109.053 158.709C109.244 158.247 109.567 157.852 109.982 157.574C110.397 157.297 110.885 157.148 111.384 157.148C112.053 157.148 112.694 157.415 113.168 157.889C113.641 158.363 113.906 159.006 113.906 159.676Z" fill="white"/>
<path d="M144.187 152.094C144.187 152.594 144.039 153.082 143.761 153.498C143.484 153.914 143.09 154.238 142.629 154.429C142.168 154.62 141.661 154.67 141.171 154.573C140.682 154.475 140.232 154.235 139.88 153.881C139.527 153.528 139.286 153.077 139.189 152.587C139.092 152.097 139.142 151.588 139.333 151.127C139.524 150.665 139.847 150.27 140.262 149.992C140.677 149.715 141.165 149.566 141.664 149.566C142.333 149.566 142.974 149.833 143.448 150.307C143.921 150.781 144.187 151.424 144.187 152.094Z" fill="white"/>
<path d="M90.5122 172.317C90.5122 172.817 90.3641 173.305 90.0867 173.721C89.8093 174.137 89.415 174.461 88.9537 174.652C88.4924 174.843 87.9849 174.893 87.4954 174.795C87.0058 174.697 86.5563 174.456 86.2037 174.102C85.851 173.748 85.6111 173.297 85.5142 172.807C85.4174 172.316 85.468 171.808 85.6597 171.346C85.8513 170.884 86.1754 170.49 86.5909 170.213C87.0064 169.936 87.4946 169.788 87.9938 169.789C88.6621 169.79 89.3027 170.057 89.7749 170.531C90.247 171.005 90.5122 171.647 90.5122 172.317Z" fill="white"/>
<path d="M134.609 173.82C134.609 174.32 134.461 174.809 134.184 175.225C133.907 175.64 133.513 175.964 133.052 176.155C132.591 176.347 132.083 176.397 131.594 176.299C131.105 176.202 130.655 175.961 130.302 175.608C129.949 175.254 129.709 174.804 129.612 174.314C129.514 173.823 129.564 173.315 129.755 172.853C129.946 172.391 130.27 171.997 130.684 171.719C131.099 171.441 131.587 171.293 132.086 171.293C132.755 171.293 133.397 171.559 133.87 172.033C134.343 172.507 134.609 173.15 134.609 173.82Z" fill="white"/>
<path d="M87.9938 172.315L112.39 185.007L132.086 173.802L141.531 152.442L140.953 127.062H82.1145L77.4785 150.873L87.9938 172.315Z" stroke="white" stroke-width="0.87" stroke-miterlimit="10"/>
<path d="M87.9939 172.316L110.878 160.797L132.086 173.804" stroke="white" stroke-width="0.87" stroke-miterlimit="10"/>
<path d="M110.878 158.067L110.728 136.114L140.953 127.062" stroke="white" stroke-width="0.87" stroke-miterlimit="10"/>
<path d="M141.09 151.259L110.728 135.441L78.5671 150.323L111.384 159.676L140.953 152.44" stroke="white" stroke-width="0.87" stroke-miterlimit="10"/>
<path d="M88.8591 171.312L110.728 136.115L81.0535 129.066" stroke="white" stroke-width="0.87" stroke-miterlimit="10"/>
<path d="M131.877 172.625L110.728 136.113" stroke="white" stroke-width="0.87" stroke-miterlimit="10"/>
<path d="M112.39 185.005L111.384 159.676" stroke="white" stroke-width="0.87" stroke-miterlimit="10"/>
</g>
<defs>
<linearGradient id="paint0_linear_3004_23212" x1="-58.9608" y1="57.2009" x2="-58.9608" y2="239.616" gradientUnits="userSpaceOnUse">
<stop stop-color="#F9F9F9"/>
<stop offset="1" stop-color="#EBE8FA"/>
</linearGradient>
<linearGradient id="paint1_linear_3004_23212" x1="71.2851" y1="57.2009" x2="71.2851" y2="239.616" gradientUnits="userSpaceOnUse">
<stop stop-color="#F9F9F9"/>
<stop offset="1" stop-color="#EBE8FA"/>
</linearGradient>
<linearGradient id="paint2_linear_3004_23212" x1="201.54" y1="57.2009" x2="201.54" y2="239.616" gradientUnits="userSpaceOnUse">
<stop stop-color="#F9F9F9"/>
<stop offset="1" stop-color="#EBE8FA"/>
</linearGradient>
<linearGradient id="paint3_linear_3004_23212" x1="331.786" y1="57.2009" x2="331.786" y2="239.616" gradientUnits="userSpaceOnUse">
<stop stop-color="#F9F9F9"/>
<stop offset="1" stop-color="#EBE8FA"/>
</linearGradient>
<clipPath id="clip0_3004_23212">
<rect width="674" height="348" fill="white" transform="translate(-123)"/>
</clipPath>
</defs>
</svg>
