<svg width="233" height="50" viewBox="0 0 233 50" fill="none" xmlns="http://www.w3.org/2000/svg">
<path d="M0.420131 49.0871L0.700263 48.5253C0.770296 48.3848 0.910362 48.3848 0.980395 48.4551C1.05043 48.4551 1.75076 49.0169 2.31102 49.0169C2.73122 49.0169 3.08139 48.736 3.08139 48.3146C3.08139 47.8933 2.73122 47.5421 1.96086 47.2612C1.12046 46.9101 0.350098 46.4185 0.350098 45.3652C0.350098 44.5927 0.910362 43.6798 2.31102 43.6798C3.22145 43.6798 3.85175 44.1011 4.06185 44.2416C4.20192 44.3118 4.27195 44.4523 4.20192 44.5927L3.85175 45.0843C3.78172 45.1545 3.64165 45.2247 3.57162 45.1545C3.50159 45.0843 2.87129 44.6629 2.38106 44.6629C1.89083 44.6629 1.61069 45.014 1.61069 45.2949C1.61069 45.7163 1.96086 45.9972 2.66119 46.2781C3.50159 46.6292 4.48205 47.1208 4.48205 48.2444C4.48205 49.1573 3.71168 50 2.45109 50C1.33056 50 0.700263 49.5084 0.560197 49.2978C0.420131 49.2275 0.350098 49.2275 0.420131 49.0871Z" fill="#FF6633"/>
<path d="M7.98389 43.9607C7.98389 43.8905 8.05392 43.8203 8.12395 43.8203H8.96435C9.03438 43.8203 9.10441 43.8905 9.10441 43.9607V49.7893C9.10441 49.8596 9.03438 49.9298 8.96435 49.9298H8.12395C8.05392 49.9298 7.98389 49.8596 7.98389 49.7893V43.9607Z" fill="#FF6633"/>
<path d="M13.7963 43.8202C13.7963 43.75 13.8663 43.6798 13.9364 43.6798H14.0764C14.1465 43.6798 14.2165 43.75 14.2165 43.75L16.1074 47.8933L17.9983 43.75C17.9983 43.6798 18.0683 43.6798 18.1384 43.6798H18.2784C18.3485 43.6798 18.4185 43.75 18.4185 43.8202L19.469 49.7191C19.469 49.8596 19.3989 49.9298 19.3289 49.9298H18.5586C18.4885 49.9298 18.4185 49.8596 18.4185 49.7893L17.9283 46.4888L16.3875 49.9298C16.3875 50 16.3175 50 16.2475 50H16.1074C16.0374 50 15.9673 49.9298 15.9673 49.9298L14.4266 46.4888L13.9364 49.7893C13.9364 49.8596 13.8663 49.9298 13.7963 49.9298H13.0259C12.8859 49.9298 12.8158 49.8596 12.8859 49.7191L13.7963 43.8202Z" fill="#FF6633"/>
<path d="M23.251 43.9607C23.251 43.8905 23.321 43.8203 23.391 43.8203H25.422C26.4725 43.8203 27.3829 44.6629 27.3829 45.7865C27.3829 46.8399 26.4725 47.7528 25.422 47.7528H24.3015V49.7893C24.3015 49.8596 24.2314 49.9298 24.1614 49.9298H23.391C23.321 49.9298 23.251 49.8596 23.251 49.7893V43.9607ZM25.422 46.6292C25.9122 46.6292 26.3324 46.2079 26.3324 45.7163C26.3324 45.2247 25.9122 44.8736 25.422 44.8736H24.4415V46.6292H25.422Z" fill="#FF6633"/>
<path d="M30.8845 43.9607C30.8845 43.8905 30.9545 43.8203 31.0246 43.8203H31.7949C31.8649 43.8203 31.935 43.8905 31.935 43.9607V48.8764H34.176C34.2461 48.8764 34.3161 48.9467 34.3161 49.0169V49.7191C34.3161 49.7894 34.2461 49.8596 34.176 49.8596H30.9545C30.8845 49.8596 30.8145 49.7894 30.8145 49.7191V43.9607H30.8845Z" fill="#FF6633"/>
<path d="M37.7476 43.9607C37.7476 43.8905 37.8176 43.8203 37.8876 43.8203H38.728C38.7981 43.8203 38.8681 43.8905 38.8681 43.9607V49.7893C38.8681 49.8596 38.7981 49.9298 38.728 49.9298H37.8876C37.8176 49.9298 37.7476 49.8596 37.7476 49.7893V43.9607Z" fill="#FF6633"/>
<path d="M42.9302 43.9607C42.9302 43.8905 43.0002 43.8203 43.0702 43.8203H46.6419C46.712 43.8203 46.782 43.8905 46.782 43.9607V44.6629C46.782 44.7332 46.712 44.8034 46.6419 44.8034H44.0507V46.4186H46.2217C46.2918 46.4186 46.3618 46.4888 46.3618 46.559V47.2613C46.3618 47.3315 46.2918 47.4017 46.2217 47.4017H44.0507V49.6489C44.0507 49.7191 43.9807 49.7893 43.9106 49.7893H43.1403C43.0702 49.7893 43.0002 49.7191 43.0002 49.6489V43.9607H42.9302Z" fill="#FF6633"/>
<path d="M51.6842 46.9803L49.7233 44.0309C49.6532 43.8905 49.7233 43.75 49.8633 43.75H50.7738C50.8438 43.75 50.9138 43.8202 50.9138 43.8202L52.3145 45.8567L53.7152 43.8202C53.7152 43.75 53.7852 43.75 53.8552 43.75H54.7657C54.9057 43.75 54.9758 43.8905 54.9057 44.0309L52.8748 46.9803V49.7893C52.8748 49.8595 52.8047 49.9298 52.7347 49.9298H51.8243C51.7542 49.9298 51.6842 49.8595 51.6842 49.7893V46.9803Z" fill="#FF6633"/>
<path d="M58.0571 43.9607C58.0571 43.8905 58.1272 43.8203 58.1972 43.8203H59.0376C59.1076 43.8203 59.1777 43.8905 59.1777 43.9607V49.7893C59.1777 49.8596 59.1076 49.9298 59.0376 49.9298H58.1972C58.1272 49.9298 58.0571 49.8596 58.0571 49.7893V43.9607Z" fill="#FF6633"/>
<path d="M63.2397 43.8202C63.2397 43.75 63.3098 43.6798 63.3798 43.6798H63.5899L67.2316 47.5421V43.8905C67.2316 43.8202 67.3017 43.75 67.3717 43.75H68.1421C68.2121 43.75 68.2821 43.8202 68.2821 43.8905V49.8596C68.2821 49.9298 68.2121 50 68.1421 50H67.932L64.2902 45.9972V49.7893C64.2902 49.8596 64.2202 49.9298 64.1502 49.9298H63.3798C63.3098 49.9298 63.2397 49.8596 63.2397 49.7893V43.8202Z" fill="#FF6633"/>
<path d="M75.1453 43.6798C75.9157 43.6798 76.6861 43.9607 77.2463 44.5225C77.3164 44.5927 77.3164 44.6629 77.2463 44.7332L76.6861 45.2949C76.616 45.3652 76.546 45.3652 76.476 45.2949C76.1258 44.9438 75.6356 44.8034 75.1453 44.8034C74.0248 44.8034 73.1844 45.7163 73.1844 46.8399C73.1844 47.8933 74.0248 48.8764 75.1453 48.8764C75.6356 48.8764 75.9857 48.736 76.1958 48.6657V47.8933H75.4955C75.4255 47.8933 75.3554 47.823 75.3554 47.7528V47.0506C75.3554 46.9803 75.4255 46.9101 75.4955 46.9101H77.1763C77.2463 46.9101 77.3164 46.9803 77.3164 47.0506V49.2978C77.3164 49.368 77.3164 49.4382 77.2463 49.4382C77.2463 49.4382 76.3359 50 75.0753 50C73.3245 50 71.9238 48.5955 71.9238 46.8399C71.9939 45.0843 73.3945 43.6798 75.1453 43.6798Z" fill="#FF6633"/>
<path d="M85.5103 43.9607C85.5103 43.8905 85.5803 43.8203 85.6503 43.8203H87.6813C88.7318 43.8203 89.6422 44.6629 89.6422 45.7865C89.6422 46.8399 88.7318 47.7528 87.6813 47.7528H86.5607V49.7893C86.5607 49.8596 86.4907 49.9298 86.4207 49.9298H85.6503C85.5803 49.9298 85.5103 49.8596 85.5103 49.7893V43.9607ZM87.6813 46.6292C88.1715 46.6292 88.5917 46.2079 88.5917 45.7163C88.5917 45.2247 88.1715 44.8736 87.6813 44.8736H86.7008V46.6292H87.6813Z" fill="#FF6633"/>
<path d="M93.144 43.9607C93.144 43.8905 93.2141 43.8203 93.2841 43.8203H95.8053C96.8558 43.8203 97.6962 44.6629 97.6962 45.7163C97.6962 46.4888 97.1359 47.191 96.4356 47.4719L97.6262 49.7191C97.6962 49.8596 97.6262 50 97.4861 50H96.5757C96.5056 50 96.4356 49.9298 96.4356 49.9298L95.245 47.6124H94.2646V49.8596C94.2646 49.9298 94.1945 50 94.1245 50H93.3541C93.2841 50 93.2141 49.9298 93.2141 49.8596V43.9607H93.144ZM95.7353 46.559C96.2255 46.559 96.5757 46.1377 96.5757 45.6461C96.5757 45.1545 96.1555 44.8034 95.7353 44.8034H94.3346V46.559H95.7353Z" fill="#FF6633"/>
<path d="M104.139 43.6798C105.89 43.6798 107.291 45.0843 107.291 46.8399C107.291 48.5955 105.89 50 104.139 50C102.388 50 100.988 48.5955 100.988 46.8399C100.988 45.0843 102.388 43.6798 104.139 43.6798ZM104.139 48.8764C105.26 48.8764 106.17 47.9635 106.17 46.8399C106.17 45.7163 105.26 44.8034 104.139 44.8034C103.019 44.8034 102.108 45.7163 102.108 46.8399C102.108 47.9635 103.019 48.8764 104.139 48.8764Z" fill="#FF6633"/>
<path d="M113.593 43.6798C114.504 43.6798 115.134 43.9607 115.694 44.5225C115.764 44.5927 115.764 44.6629 115.694 44.7332L115.134 45.2949C115.064 45.3652 114.994 45.3652 114.924 45.2949C114.574 44.9438 114.084 44.8034 113.593 44.8034C112.473 44.8034 111.632 45.7163 111.632 46.8399C111.632 47.9635 112.473 48.8764 113.593 48.8764C114.084 48.8764 114.574 48.6657 114.924 48.3848C114.994 48.3146 115.064 48.3146 115.134 48.3848L115.694 48.9466C115.764 49.0169 115.764 49.0871 115.694 49.1573C115.134 49.7191 114.364 50 113.593 50C111.843 50 110.442 48.5955 110.442 46.8399C110.442 45.0843 111.843 43.6798 113.593 43.6798Z" fill="#FF6633"/>
<path d="M119.266 43.9607C119.266 43.8905 119.336 43.8203 119.406 43.8203H122.978C123.048 43.8203 123.118 43.8905 123.118 43.9607V44.6629C123.118 44.7332 123.048 44.8034 122.978 44.8034H120.457V46.2079H122.628C122.698 46.2079 122.768 46.2781 122.768 46.3483V47.0506C122.768 47.1208 122.698 47.191 122.628 47.191H120.457V48.736H123.048C123.118 48.736 123.188 48.8062 123.188 48.8764V49.5787C123.188 49.6489 123.118 49.7191 123.048 49.7191H119.476C119.406 49.7191 119.336 49.6489 119.336 49.5787V43.9607H119.266Z" fill="#FF6633"/>
<path d="M126.55 49.0871L126.83 48.5253C126.9 48.3848 127.04 48.3848 127.11 48.4551C127.18 48.4551 127.88 49.0169 128.44 49.0169C128.861 49.0169 129.211 48.736 129.211 48.3146C129.211 47.8933 128.861 47.5421 128.09 47.2612C127.25 46.9101 126.479 46.4185 126.479 45.3652C126.479 44.5927 127.04 43.6798 128.44 43.6798C129.351 43.6798 129.981 44.1011 130.191 44.2416C130.261 44.3118 130.331 44.4523 130.261 44.5225L129.911 45.014C129.841 45.0843 129.701 45.1545 129.631 45.0843C129.561 45.014 128.931 44.5927 128.44 44.5927C127.95 44.5927 127.67 44.9438 127.67 45.2247C127.67 45.6461 128.02 45.927 128.721 46.2079C129.561 46.559 130.541 47.0506 130.541 48.1742C130.541 49.0871 129.771 49.9298 128.51 49.9298C127.39 49.9298 126.76 49.4382 126.62 49.2275C126.479 49.2275 126.479 49.2275 126.55 49.0871Z" fill="#FF6633"/>
<path d="M133.693 49.0871L133.973 48.5253C134.043 48.3848 134.183 48.3848 134.253 48.4551C134.323 48.4551 135.024 49.0169 135.584 49.0169C136.004 49.0169 136.354 48.736 136.354 48.3146C136.354 47.8933 136.004 47.5421 135.234 47.2612C134.393 46.9101 133.623 46.4185 133.623 45.3652C133.623 44.5927 134.183 43.6798 135.584 43.6798C136.494 43.6798 137.125 44.1011 137.335 44.2416C137.405 44.3118 137.475 44.4523 137.405 44.5225L137.055 45.014C136.985 45.0843 136.845 45.1545 136.775 45.0843C136.705 45.014 136.074 44.5927 135.584 44.5927C135.094 44.5927 134.814 44.9438 134.814 45.2247C134.814 45.6461 135.164 45.927 135.864 46.2079C136.704 46.559 137.685 47.0506 137.685 48.1742C137.685 49.0871 136.915 49.9298 135.654 49.9298C134.533 49.9298 133.903 49.4382 133.763 49.2275C133.693 49.2275 133.623 49.2275 133.693 49.0871Z" fill="#FF6633"/>
<path d="M141.257 43.9607C141.257 43.8905 141.327 43.8203 141.397 43.8203H144.969C145.039 43.8203 145.109 43.8905 145.109 43.9607V44.6629C145.109 44.7332 145.039 44.8034 144.969 44.8034H142.377V46.2079H144.548C144.618 46.2079 144.688 46.2781 144.688 46.3483V47.0506C144.688 47.1208 144.618 47.191 144.548 47.191H142.377V48.736H144.969C145.039 48.736 145.109 48.8062 145.109 48.8764V49.5787C145.109 49.6489 145.039 49.7191 144.969 49.7191H141.467C141.397 49.7191 141.327 49.6489 141.327 49.5787V43.9607H141.257Z" fill="#FF6633"/>
<path d="M148.54 49.0871L148.82 48.5253C148.89 48.3848 149.03 48.3848 149.1 48.4551C149.171 48.4551 149.871 49.0169 150.431 49.0169C150.851 49.0169 151.201 48.736 151.201 48.3146C151.201 47.8933 150.851 47.5421 150.081 47.2612C149.241 46.9101 148.47 46.4185 148.47 45.3652C148.47 44.5927 149.03 43.6798 150.431 43.6798C151.342 43.6798 151.972 44.1011 152.182 44.2416C152.252 44.3118 152.322 44.4523 152.252 44.5225L151.902 45.014C151.832 45.0843 151.692 45.1545 151.622 45.0843C151.552 45.014 150.921 44.5927 150.431 44.5927C149.941 44.5927 149.661 44.9438 149.661 45.2247C149.661 45.6461 150.011 45.927 150.711 46.2079C151.552 46.559 152.532 47.0506 152.532 48.1742C152.532 49.0871 151.762 49.9298 150.501 49.9298C149.381 49.9298 148.75 49.4382 148.61 49.2275C148.47 49.2275 148.4 49.2275 148.54 49.0871Z" fill="#FF6633"/>
<path d="M160.446 43.9607C160.446 43.8905 160.516 43.8203 160.586 43.8203H164.158C164.228 43.8203 164.298 43.8905 164.298 43.9607V44.6629C164.298 44.7332 164.228 44.8034 164.158 44.8034H161.566V46.4186H163.737C163.807 46.4186 163.877 46.4888 163.877 46.559V47.2613C163.877 47.3315 163.807 47.4017 163.737 47.4017H161.566V49.6489C161.566 49.7191 161.496 49.7893 161.426 49.7893H160.656C160.586 49.7893 160.516 49.7191 160.516 49.6489V43.9607H160.446Z" fill="#FF6633"/>
<path d="M170.53 43.6798C172.281 43.6798 173.682 45.0843 173.682 46.8399C173.682 48.5955 172.281 50 170.53 50C168.78 50 167.379 48.5955 167.379 46.8399C167.379 45.0843 168.78 43.6798 170.53 43.6798ZM170.53 48.8764C171.651 48.8764 172.561 47.9635 172.561 46.8399C172.561 45.7163 171.651 44.8034 170.53 44.8034C169.41 44.8034 168.499 45.7163 168.499 46.8399C168.499 47.9635 169.41 48.8764 170.53 48.8764Z" fill="#FF6633"/>
<path d="M177.253 43.9607C177.253 43.8905 177.323 43.8203 177.393 43.8203H179.915C180.965 43.8203 181.806 44.6629 181.806 45.7163C181.806 46.4888 181.245 47.191 180.545 47.4719L181.736 49.7191C181.806 49.8596 181.736 50 181.595 50H180.685C180.615 50 180.545 49.9298 180.545 49.9298L179.354 47.6124H178.374V49.8596C178.374 49.9298 178.304 50 178.234 50H177.464C177.393 50 177.323 49.9298 177.323 49.8596V43.9607H177.253ZM179.845 46.559C180.335 46.559 180.685 46.1377 180.685 45.6461C180.685 45.1545 180.265 44.8034 179.845 44.8034H178.444V46.559H179.845Z" fill="#FF6633"/>
<path d="M189.93 43.9607C189.93 43.8905 190 43.8203 190.07 43.8203H192.101C193.151 43.8203 194.062 44.6629 194.062 45.7865C194.062 46.8399 193.151 47.7528 192.101 47.7528H190.98V49.7893C190.98 49.8596 190.91 49.9298 190.84 49.9298H190.07C190 49.9298 189.93 49.8596 189.93 49.7893V43.9607ZM192.101 46.6292C192.591 46.6292 193.011 46.2079 193.011 45.7163C193.011 45.2247 192.591 44.8736 192.101 44.8736H191.12V46.6292H192.101Z" fill="#FF6633"/>
<path d="M197.563 43.9607C197.563 43.8905 197.633 43.8203 197.703 43.8203H201.275C201.345 43.8203 201.415 43.8905 201.415 43.9607V44.6629C201.415 44.7332 201.345 44.8034 201.275 44.8034H198.684V46.2079H200.855C200.925 46.2079 200.995 46.2781 200.995 46.3483V47.0506C200.995 47.1208 200.925 47.191 200.855 47.191H198.684V48.736H201.275C201.345 48.736 201.415 48.8062 201.415 48.8764V49.5787C201.415 49.6489 201.345 49.7191 201.275 49.7191H197.703C197.633 49.7191 197.563 49.6489 197.563 49.5787V43.9607Z" fill="#FF6633"/>
<path d="M207.858 43.6798C209.609 43.6798 211.01 45.0843 211.01 46.8399C211.01 48.5955 209.609 50 207.858 50C206.107 50 204.707 48.5955 204.707 46.8399C204.707 45.0843 206.107 43.6798 207.858 43.6798ZM207.858 48.8764C208.979 48.8764 209.889 47.9635 209.889 46.8399C209.889 45.7163 208.979 44.8034 207.858 44.8034C206.738 44.8034 205.827 45.7163 205.827 46.8399C205.827 47.9635 206.738 48.8764 207.858 48.8764Z" fill="#FF6633"/>
<path d="M214.581 43.9607C214.581 43.8905 214.651 43.8203 214.721 43.8203H216.752C217.803 43.8203 218.713 44.6629 218.713 45.7865C218.713 46.8399 217.803 47.7528 216.752 47.7528H215.632V49.7893C215.632 49.8596 215.562 49.9298 215.491 49.9298H214.721C214.651 49.9298 214.581 49.8596 214.581 49.7893V43.9607ZM216.752 46.6292C217.242 46.6292 217.663 46.2079 217.663 45.7163C217.663 45.2247 217.242 44.8736 216.752 44.8736H215.772V46.6292H216.752Z" fill="#FF6633"/>
<path d="M222.215 43.9607C222.215 43.8905 222.285 43.8203 222.355 43.8203H223.125C223.196 43.8203 223.266 43.8905 223.266 43.9607V48.8764H225.507C225.577 48.8764 225.647 48.9467 225.647 49.0169V49.7191C225.647 49.7894 225.577 49.8596 225.507 49.8596H222.285C222.215 49.8596 222.145 49.7894 222.145 49.7191V43.9607H222.215Z" fill="#FF6633"/>
<path d="M229.078 43.9607C229.078 43.8905 229.148 43.8203 229.218 43.8203H232.79C232.86 43.8203 232.93 43.8905 232.93 43.9607V44.6629C232.93 44.7332 232.86 44.8034 232.79 44.8034H230.199V46.2079H232.37C232.44 46.2079 232.51 46.2781 232.51 46.3483V47.0506C232.51 47.1208 232.44 47.191 232.37 47.191H230.199V48.736H232.79C232.86 48.736 232.93 48.8062 232.93 48.8764V49.5787C232.93 49.6489 232.86 49.7191 232.79 49.7191H229.218C229.148 49.7191 229.078 49.6489 229.078 49.5787V43.9607Z" fill="#FF6633"/>
<path d="M45.5915 24.9298L46.712 22.9635C46.9922 22.5422 47.4824 22.5422 47.7625 22.7528C47.9026 22.8231 50.4238 24.7191 52.5248 24.7191C54.1355 24.7191 55.3961 23.6658 55.3961 22.3315C55.3961 20.7163 54.0655 19.663 51.4043 18.5394C48.4629 17.3455 45.5215 15.4495 45.5215 11.7276C45.5215 8.91857 47.6225 5.68823 52.5948 5.68823C55.8163 5.68823 58.2675 7.3034 58.8978 7.79497C59.1779 8.00565 59.318 8.49722 59.1079 8.84834L57.9173 10.6742C57.6372 11.0253 57.217 11.3062 56.7968 11.0253C56.5167 10.8849 54.1355 9.26969 52.4547 9.26969C50.6339 9.26969 49.7235 10.4635 49.7235 11.4467C49.7235 12.9214 50.914 13.9045 53.4352 14.9579C56.4466 16.1517 60.0183 17.9776 60.0183 22.0506C60.0183 25.2809 57.217 28.3006 52.8049 28.3006C48.8831 28.3006 46.5019 26.4747 45.9417 25.8427C45.4514 25.6321 45.3114 25.4916 45.5915 24.9298Z" fill="#111E52"/>
<path d="M74.5151 6.67139C74.5151 6.39049 74.7953 6.03937 75.1454 6.03937H78.0868C78.367 6.03937 78.7171 6.32027 78.7171 6.67139V27.4579C78.7171 27.7388 78.437 28.0899 78.0868 28.0899H75.1454C74.8653 28.0899 74.5151 27.809 74.5151 27.4579V6.67139Z" fill="#111E52"/>
<path d="M97.2761 6.17981C97.2761 5.89891 97.4862 5.68823 97.8363 5.68823H98.3266C98.6067 5.68823 98.7468 5.82868 98.8868 5.96913L105.75 20.7865C105.82 20.7865 105.82 20.7865 105.82 20.7865L112.753 6.03936C112.823 5.82868 113.034 5.75846 113.314 5.75846H113.804C114.154 5.75846 114.364 5.96913 114.364 6.25003L118.076 27.3877C118.146 27.809 117.936 28.0899 117.516 28.0899H114.644C114.364 28.0899 114.084 27.809 114.014 27.5983L112.193 15.6601H112.123L106.661 28.0197C106.59 28.2304 106.38 28.3708 106.1 28.3708H105.54C105.26 28.3708 105.12 28.2304 104.98 28.0197L99.4471 15.6601H99.3771L97.5562 27.5983C97.5562 27.809 97.2761 28.0899 96.996 28.0899H94.1946C93.7744 28.0899 93.5643 27.809 93.6344 27.3877L97.2761 6.17981Z" fill="#111E52"/>
<path d="M132.993 6.67139C132.993 6.39049 133.273 6.03937 133.623 6.03937H140.977C144.828 6.03937 147.98 9.19948 147.98 12.9916C147.98 16.854 144.828 20.0843 140.977 20.0843H137.055V27.4579C137.055 27.7388 136.775 28.0899 136.425 28.0899H133.553C133.203 28.0899 132.923 27.809 132.923 27.4579V6.67139H132.993ZM140.697 16.222C142.447 16.222 143.918 14.8175 143.918 12.9214C143.918 11.1658 142.447 9.90173 140.697 9.90173H137.055V16.222H140.697Z" fill="#111E52"/>
<path d="M162.197 6.67139C162.197 6.39049 162.477 6.03937 162.827 6.03937H170.18C174.032 6.03937 177.184 9.19948 177.184 12.9916C177.184 16.854 174.032 20.0843 170.18 20.0843H166.258V27.4579C166.258 27.7388 165.978 28.0899 165.628 28.0899H162.757C162.407 28.0899 162.126 27.809 162.126 27.4579V6.67139H162.197ZM169.9 16.222C171.651 16.222 173.122 14.8175 173.122 12.9214C173.122 11.1658 171.651 9.90173 169.9 9.90173H166.258V16.222H169.9Z" fill="#111E52"/>
<path d="M191.4 6.67139C191.4 6.39049 191.681 6.03937 192.031 6.03937H194.902C195.182 6.03937 195.532 6.32027 195.532 6.67139V24.2978H203.516C203.866 24.2978 204.146 24.5787 204.146 24.8596V27.4579C204.146 27.7388 203.866 28.0899 203.516 28.0899H192.031C191.681 28.0899 191.4 27.809 191.4 27.4579V6.67139Z" fill="#111E52"/>
<path d="M217.873 6.67139C217.873 6.39049 218.153 6.03937 218.503 6.03937H231.249C231.599 6.03937 231.879 6.32027 231.879 6.67139V9.2697C231.879 9.5506 231.599 9.90173 231.249 9.90173H222.005V15.0281H229.708C229.988 15.0281 230.269 15.309 230.269 15.5899V18.1882C230.269 18.5394 229.988 18.8203 229.708 18.8203H221.935V24.2978H231.179C231.529 24.2978 231.809 24.5787 231.809 24.8596V27.4579C231.809 27.7388 231.529 28.0899 231.179 28.0899H218.433C218.083 28.0899 217.803 27.809 217.803 27.4579V6.67139H217.873Z" fill="#111E52"/>
<path d="M0 12.9916V7.79492L1.47069 8.70784L3.01142 9.55054L4.48212 10.3932L6.02284 11.3062L9.03426 12.9916L10.505 13.9045L12.0457 14.7472L13.5164 15.6601L14.9871 16.5028L16.5278 17.3455L17.9985 18.2584L19.5392 19.1011L21.0099 19.9438L22.5506 20.8567L24.0213 21.6994L25.5621 22.6123L27.0328 23.455L28.5035 24.2977L27.0328 25.2107L25.5621 26.0533L24.0213 26.896L22.5506 27.809L21.0099 28.6517L19.5392 29.5646L17.9985 30.4073L16.5278 31.25L14.9871 30.4073L13.5164 29.5646L12.0457 28.6517L10.505 27.809L9.03426 26.896L7.49354 26.0533L6.02284 25.2107L4.48212 24.2977L3.01142 23.455V18.2584L6.02284 19.9438L9.03426 21.6994L12.0457 23.455L14.9871 25.2107L16.5278 26.0533L17.9985 25.2107L19.5392 24.2977L17.9985 23.455L14.9871 21.6994L12.0457 20.014V19.9438V20.014L9.03426 18.2584L6.02284 16.5028L3.01142 14.7472L0 12.9916Z" fill="url(#paint0_linear)"/>
<path d="M33.0554 18.2584V23.4551L31.5147 22.6124L30.044 21.6994L28.5033 20.8567L27.0326 20.014L24.0212 18.2584L22.5505 17.4157L21.0097 16.5028L19.539 15.6601L17.9983 14.7472L16.5276 13.9045L14.9869 13.0618L13.5162 12.1489L12.0455 11.3062L10.5048 10.4635L9.03408 9.55056L7.49336 8.70786L6.02266 7.79494L4.48193 6.95225L6.02266 6.10955L7.49336 5.19663L9.03408 4.35393L10.5048 3.51124L12.0455 2.59831L13.5162 1.75562L14.9869 0.842697L16.5276 0L17.9983 0.842697L19.539 1.75562L21.0097 2.59831L22.5505 3.51124L24.0212 4.35393L25.5619 5.19663L27.0326 6.10955L28.5033 6.95225L30.044 7.79494V13.0618L27.0326 11.3062L24.0212 9.55056L21.0097 7.79494L17.9983 6.10955L16.5276 5.19663L14.9869 6.10955L13.5162 6.95225L14.9869 7.79494L17.9983 9.55056L21.0097 11.3062L24.0212 13.0618L27.0326 14.7472L30.044 16.5028L33.0554 18.2584Z" fill="url(#paint1_linear)"/>
<defs>
<linearGradient id="paint0_linear" x1="0" y1="19.5425" x2="28.5318" y2="19.5425" gradientUnits="userSpaceOnUse">
<stop stop-color="#FF9900"/>
<stop offset="0.5745" stop-color="#FF6633"/>
<stop offset="1" stop-color="#CC3333"/>
</linearGradient>
<linearGradient id="paint1_linear" x1="4.50553" y1="11.7364" x2="33.0373" y2="11.7364" gradientUnits="userSpaceOnUse">
<stop stop-color="#0066FF"/>
<stop offset="0.6569" stop-color="#0033CC"/>
<stop offset="0.9897" stop-color="#003399"/>
</linearGradient>
</defs>
</svg>
